<svg width="355" height="232" viewBox="0 0 355 232" fill="none" xmlns="http://www.w3.org/2000/svg">
<g clip-path="url(#clip0_1_1346)">
<path d="M39.802 102.946L65.7209 110.261L74.4202 102.411L39.802 102.946Z" fill="white" stroke="black" stroke-miterlimit="10" stroke-linecap="round" stroke-linejoin="round"/>
<path d="M64.8868 115.911L43.6154 104.79L64.3505 112.105L64.8868 115.911Z" fill="white" stroke="black" stroke-miterlimit="10" stroke-linecap="round" stroke-linejoin="round"/>
<path d="M65.7209 110.261L64.8868 115.911L64.3505 112.104L39.802 102.946L65.7209 110.261Z" fill="white" stroke="black" stroke-miterlimit="10" stroke-linecap="round" stroke-linejoin="round"/>
<path d="M64.3505 112.104L58.0942 123.226L39.802 102.946L64.3505 112.104Z" fill="white" stroke="black" stroke-miterlimit="10" stroke-linecap="round" stroke-linejoin="round"/>
<path d="M68.8193 115.732C68.8193 115.732 80.2594 120.312 95.632 113.77C111.005 107.228 127.39 98.4262 142.167 99.0803C156.884 99.7345 168.026 105.92 170.648 116.089C173.27 126.2 163.796 134.05 161.472 128.519C159.208 122.988 164.392 110.202 176.845 111.51C189.298 112.818 202.406 125.545 193.23 147.134" stroke="black" stroke-miterlimit="10" stroke-linecap="round" stroke-linejoin="round" stroke-dasharray="3 3"/>
<path d="M88.7798 196.317L78.2931 229.086C77.876 230.394 78.8293 231.703 80.1998 231.703C80.9148 231.703 81.5702 231.346 81.9277 230.751L99.5049 202.264L88.7798 196.317Z" fill="black" stroke="#263238" stroke-miterlimit="10" stroke-linecap="round" stroke-linejoin="round"/>
<path d="M156.884 196.317L167.371 229.086C167.788 230.394 166.835 231.703 165.464 231.703C164.749 231.703 164.094 231.346 163.736 230.751L146.159 202.264L156.884 196.317Z" fill="black" stroke="#263238" stroke-miterlimit="10" stroke-linecap="round" stroke-linejoin="round"/>
<path d="M168.205 177.167C164.987 176.87 160.34 179.189 156.765 179.249C152.475 179.308 148.364 178.416 144.848 175.918C138.234 171.16 133.289 163.964 128.701 157.363C117.082 140.711 103.378 106.514 103.378 106.514C103.318 106.336 103.259 106.158 103.199 105.979C100.22 102.47 98.2536 101.995 93.8444 103.838C88.7798 105.92 83.4172 110.083 83.4172 110.083V110.023C72.0963 120.431 65.0059 135.418 65.0059 152.01C65.0059 183.531 90.6269 209.104 122.206 209.104C143.478 209.104 162.068 197.507 171.899 180.26C171.601 178.178 169.933 177.346 168.205 177.167Z" fill="black"/>
<path d="M341.951 6.00644L316.032 13.3215L307.333 5.47119L341.951 6.00644Z" fill="white" stroke="black" stroke-miterlimit="10" stroke-linecap="round" stroke-linejoin="round"/>
<path d="M316.866 18.9713L338.138 7.8501L317.403 15.1651L316.866 18.9713Z" fill="white" stroke="black" stroke-miterlimit="10" stroke-linecap="round" stroke-linejoin="round"/>
<path d="M316.032 13.3214L316.866 18.9712L317.403 15.165L341.951 6.00635L316.032 13.3214Z" fill="white" stroke="black" stroke-miterlimit="10" stroke-linecap="round" stroke-linejoin="round"/>
<path d="M317.403 15.165L323.599 26.2863L341.951 6.00635L317.403 15.165Z" fill="white" stroke="black" stroke-miterlimit="10" stroke-linecap="round" stroke-linejoin="round"/>
<path d="M312.517 17.0089C312.517 17.0089 301.077 21.5882 285.704 15.0463C270.332 8.50436 253.946 -0.297481 239.169 0.356711C224.452 1.0109 213.31 7.19598 210.688 17.3657C208.066 27.4759 217.54 35.3262 219.864 29.7953C222.128 24.2644 216.944 11.478 204.491 12.7863C192.038 14.0947 178.93 26.8217 188.106 48.41" stroke="black" stroke-miterlimit="10" stroke-linecap="round" stroke-linejoin="round" stroke-dasharray="3 3"/>
<path d="M185.305 165.57C185.305 165.57 185.842 168.187 192.396 170.209C198.95 172.29 204.015 172.944 204.491 176.096C205.028 179.189 203.479 181.806 198.414 183.53C193.409 185.255 182.148 182.817 176.785 181.627C171.422 180.438 161.234 177.464 161.234 177.464C161.234 177.464 183.22 168.187 185.305 165.57Z" fill="black" stroke="black" stroke-miterlimit="10" stroke-linecap="round" stroke-linejoin="round"/>
<path d="M204.491 176.097C204.194 174.431 202.644 173.48 200.261 172.588C193.588 171.755 186.378 173.718 182.207 172.944C179.407 172.409 177.44 171.398 176.249 170.685C169.397 173.956 161.234 177.464 161.234 177.464C161.234 177.464 171.422 180.378 176.785 181.627C182.148 182.817 193.409 185.255 198.414 183.531C203.479 181.806 205.028 179.249 204.491 176.097Z" fill="white" stroke="black" stroke-miterlimit="10" stroke-linecap="round" stroke-linejoin="round"/>
<path d="M119.048 175.799C119.048 175.799 128.403 181.508 135.851 182.698C143.299 183.887 150.926 182.876 160.936 179.605C170.946 176.334 181.015 170.625 188.642 165.808C196.269 160.99 204.015 153.378 203.896 146.658C203.717 139.937 194.541 138.213 190.728 138.391C186.914 138.57 184.471 141.127 174.64 144.1C164.809 147.015 151.998 147.371 146.457 146.36C140.916 145.349 134.838 144.457 134.838 144.457C134.838 144.457 138.115 151.534 136.03 158.79C133.944 166.046 130.131 169.317 127.926 170.209C125.603 170.922 119.048 175.799 119.048 175.799Z" fill="white" stroke="black" stroke-miterlimit="10" stroke-linecap="round" stroke-linejoin="round"/>
<path d="M136.685 142.614V144.517C136.685 144.517 139.128 146.777 141.869 148.977C144.61 151.237 147.768 155.519 147.768 155.519C147.768 155.519 153.845 155.341 158.135 155.697C162.485 156.054 166.417 157.422 166.417 157.422L184.412 141.186L183.876 138.451L170.052 139.818L154.501 131.849L141.154 142.732L136.685 142.614Z" fill="black" stroke="black" stroke-miterlimit="10" stroke-linecap="round" stroke-linejoin="round"/>
<path d="M168.86 136.726C168.86 136.726 164.868 133.812 161.77 131.73C158.672 129.649 154.679 128.103 154.679 128.103L136.685 142.614C136.685 142.614 144.133 146.777 148.304 152.962L168.86 136.726Z" fill="white" stroke="black" stroke-miterlimit="10" stroke-linecap="round" stroke-linejoin="round"/>
<path d="M168.86 136.726L148.244 152.962C148.244 152.962 155.514 152.962 157.957 153.497C160.399 154.033 165.583 154.508 165.583 154.508L183.935 138.451C183.935 138.451 175.593 135.18 168.86 136.726Z" fill="white" stroke="black" stroke-miterlimit="10" stroke-linecap="round" stroke-linejoin="round"/>
<path d="M155.692 132.266C155.692 132.266 162.068 134.288 164.094 137.678" stroke="black" stroke-miterlimit="10" stroke-linecap="round" stroke-linejoin="round"/>
<path d="M151.462 135.12C151.462 135.12 157.837 137.142 159.863 140.532" stroke="black" stroke-miterlimit="10" stroke-linecap="round" stroke-linejoin="round"/>
<path d="M147.232 137.916C147.232 137.916 153.607 139.938 155.633 143.327" stroke="black" stroke-miterlimit="10" stroke-linecap="round" stroke-linejoin="round"/>
<path d="M143.061 140.77C143.061 140.77 149.436 142.792 151.462 146.182" stroke="black" stroke-miterlimit="10" stroke-linecap="round" stroke-linejoin="round"/>
<path d="M168.265 138.867C168.265 138.867 171.244 137.915 178.155 139.818" stroke="black" stroke-miterlimit="10" stroke-linecap="round" stroke-linejoin="round"/>
<path d="M164.332 142.138C164.332 142.138 167.192 140.651 174.104 142.554" stroke="black" stroke-miterlimit="10" stroke-linecap="round" stroke-linejoin="round"/>
<path d="M160.28 144.874C160.28 144.874 163.14 143.387 170.052 145.29" stroke="black" stroke-miterlimit="10" stroke-linecap="round" stroke-linejoin="round"/>
<path d="M156.229 147.55C156.229 147.55 159.089 146.063 166 147.966" stroke="black" stroke-miterlimit="10" stroke-linecap="round" stroke-linejoin="round"/>
<path d="M138.234 141.424C138.234 141.424 142.405 141.424 143.239 141.424C144.133 141.424 147.708 140.532 148.959 139.343C150.151 138.153 154.679 138.808 155.216 137.44C155.752 136.072 151.581 135.894 150.389 136.072C149.198 136.25 147.768 136.607 147.768 136.607C147.768 136.607 148.483 133.336 148.959 132.801C149.436 132.266 154.679 129.887 155.514 129.352C156.407 128.816 155.514 127.805 153.607 128.341C151.7 128.876 148.244 128.876 148.244 128.876C148.244 128.876 150.866 127.984 150.866 127.33C150.866 126.616 147.768 127.33 146.397 127.865C145.027 128.4 143.299 128.578 143.299 128.578C143.299 128.578 140.677 129.471 139.128 130.66C137.579 131.849 134.778 137.38 134.778 137.38L138.234 141.424Z" fill="white" stroke="black" stroke-miterlimit="10" stroke-linecap="round" stroke-linejoin="round"/>
<path d="M149.138 128.757C149.138 128.757 146.814 128.757 144.133 130.363" stroke="black" stroke-miterlimit="10" stroke-linecap="round" stroke-linejoin="round"/>
<path d="M133.408 53.5248C133.408 53.5248 133.408 54.0601 133.408 58.1636C133.408 62.3267 134.421 68.8686 136.149 70.4148C137.877 71.9611 140.32 72.4964 138.89 74.5779C137.519 76.6594 135.613 77.0162 135.613 77.0162C135.613 77.0162 133.527 84.4502 133.527 88.078C133.527 91.7058 136.149 94.1441 131.621 94.9767C127.152 95.8688 122.623 92.0626 122.623 92.0626L119.883 97.0583L110.17 91.7058C110.17 91.7058 113.09 87.2454 112.077 82.7255C111.064 78.2057 104.45 70.8312 103.974 67.3818C103.437 63.9324 101.054 56.8552 108.979 52.3354C116.963 47.875 119.346 46.9829 123.517 46.9829C127.688 46.9829 133.051 50.9081 133.408 53.5248Z" fill="white" stroke="black" stroke-miterlimit="10" stroke-linecap="round" stroke-linejoin="round"/>
<path d="M108.323 45.734C108.323 45.734 96.4066 52.2759 96.0491 58.6989C95.6915 65.0624 102.782 74.221 105.404 76.6594C108.025 79.0977 112.137 82.7255 112.137 82.7255C112.137 82.7255 113.686 82.0119 115.056 80.4656C116.427 78.9193 116.427 75.47 115.414 73.9237C114.401 72.3774 112.315 69.1065 113.686 68.036C115.056 67.0249 116.784 66.3113 118.035 67.8575C119.227 69.4038 119.585 71.4853 119.585 71.4853C119.585 71.4853 121.491 69.9391 121.313 68.7496C121.134 67.5602 119.227 65.6571 119.227 64.5866C119.227 63.5756 121.849 63.6945 121.968 60.7804C122.147 57.8663 120.955 55.0711 120.955 55.0711C120.955 55.0711 129.773 57.8068 129.058 54.7142C128.343 51.6217 125.96 50.2539 125.96 50.2539C125.96 50.2539 134.242 56.4984 135.672 54.8927C137.043 53.3464 135.136 47.1018 127.867 43.6525C120.598 40.2031 108.323 45.734 108.323 45.734Z" fill="black" stroke="black" stroke-miterlimit="10" stroke-linecap="round" stroke-linejoin="round"/>
<path d="M130.191 70.2961C130.618 70.2961 130.965 69.2044 130.965 67.8578C130.965 66.5111 130.618 65.4194 130.191 65.4194C129.763 65.4194 129.416 66.5111 129.416 67.8578C129.416 69.2044 129.763 70.2961 130.191 70.2961Z" fill="#263238" stroke="black" stroke-miterlimit="10"/>
<path d="M131.68 94.9766C136.149 94.0845 133.587 91.7056 133.587 88.0778C133.587 84.45 135.672 77.016 135.672 77.016C135.672 77.016 133.408 76.3024 129.416 78.3839C125.424 80.4654 120.061 84.7474 119.883 86.8289C119.704 88.9104 122.623 92.003 122.623 92.003C122.623 92.003 122.683 92.0624 122.802 92.1219C123.696 92.8356 127.688 95.7497 131.68 94.9766Z" fill="black" stroke="black" stroke-miterlimit="10" stroke-linecap="round" stroke-linejoin="round"/>
<path d="M128.582 80.4658C128.582 80.4658 129.595 82.7257 132.931 83.0826" stroke="white" stroke-miterlimit="10" stroke-linecap="round" stroke-linejoin="round"/>
<path d="M127.45 63.9918C127.45 63.9918 128.403 61.0182 131.263 62.2076" stroke="black" stroke-miterlimit="10" stroke-linecap="round" stroke-linejoin="round"/>
<path d="M120.121 72.2586C120.121 72.2586 118.75 67.6792 117.261 66.8466C115.771 66.014 112.494 67.6792 112.494 70.2365C112.494 72.7938 115.473 77.2542 117.082 78.0868C118.691 78.9194 119.823 77.7895 119.823 77.7895" fill="white"/>
<path d="M120.121 72.2586C120.121 72.2586 118.75 67.6792 117.261 66.8466C115.771 66.014 112.494 67.6792 112.494 70.2365C112.494 72.7938 115.473 77.2542 117.082 78.0868C118.691 78.9194 119.823 77.7895 119.823 77.7895" stroke="black" stroke-miterlimit="10" stroke-linecap="round" stroke-linejoin="round"/>
<path d="M116.188 79.7521C120.532 79.7521 124.053 76.0777 124.053 71.545C124.053 67.0123 120.532 63.3379 116.188 63.3379C111.845 63.3379 108.323 67.0123 108.323 71.545C108.323 76.0777 111.845 79.7521 116.188 79.7521Z" fill="black" stroke="white" stroke-miterlimit="10"/>
<path d="M120.9 72.0821C121.2 69.3725 119.322 66.9419 116.706 66.6531C114.089 66.3644 111.725 68.3268 111.425 71.0363C111.125 73.7459 113.002 76.1765 115.619 76.4653C118.235 76.754 120.6 74.7916 120.9 72.0821Z" fill="black" stroke="white" stroke-miterlimit="10" stroke-linecap="round" stroke-linejoin="round"/>
<path d="M115.056 71.6639L107.608 44.9016L110.409 43.8311L116.963 71.3071L115.056 71.6639Z" fill="white" stroke="black" stroke-miterlimit="10" stroke-linecap="round" stroke-linejoin="round"/>
<path d="M108.86 92.1818C108.86 92.1818 99.8624 99.9726 97.4195 113.235C94.9766 126.497 100.875 155.341 107.43 164.856C113.984 174.372 119.346 176.929 121.253 177.286C123.16 177.643 134.242 173.658 138.354 170.566C142.524 167.473 144.729 162.121 144.908 156.768C145.086 151.416 142.644 147.61 139.724 142.614C136.804 137.618 126.079 117.219 124.173 110.321C122.266 103.422 124.173 104.611 119.346 97.5342C114.52 90.4571 108.86 92.1818 108.86 92.1818Z" fill="white" stroke="black" stroke-miterlimit="10" stroke-linecap="round" stroke-linejoin="round"/>
<path d="M129.774 152.784C129.774 152.784 137.758 155.4 148.125 154.687C158.493 153.973 170.112 149.691 170.112 149.691C170.112 149.691 171.005 147.61 172.376 145.35C173.746 143.09 176.547 142.079 177.202 141.187C177.917 140.295 178.573 137.38 179.466 139.105C180.36 140.83 180.003 142.198 179.109 142.911C178.215 143.625 178.096 144.279 178.096 144.279C178.096 144.279 180.539 142.733 182.743 141.662C185.008 140.651 186.736 138.927 187.749 137.321C188.761 135.775 189.298 135.953 189.298 137.499C189.298 139.046 187.749 142.673 187.749 142.673C187.749 142.673 187.391 145.29 187.034 147.669C186.676 150.048 184.412 152.129 181.313 153.557C178.215 154.925 167.311 158.017 165.226 158.731C163.14 159.444 144.133 165.63 136.328 166.997C128.522 168.365 123.875 168.365 122.147 167.711C120.419 166.997 115.891 157.898 115.891 157.898C115.891 157.898 125.603 156.947 129.774 152.784Z" fill="white" stroke="black" stroke-miterlimit="10" stroke-linecap="round" stroke-linejoin="round"/>
<path d="M105.88 112.581C105.88 112.581 107.608 128.817 109.157 141.603C110.707 154.39 111.779 159.742 111.779 159.742C111.779 159.742 117.32 160.099 122.504 158.196C127.688 156.293 132.872 151.654 132.872 151.654C132.872 151.654 124.59 121.62 121.432 112.64C118.333 103.66 115.533 100.211 110.707 101.222C105.88 102.233 106.059 109.191 106.059 109.191" fill="white"/>
<path d="M105.88 112.581C105.88 112.581 107.608 128.817 109.157 141.603C110.707 154.39 111.779 159.742 111.779 159.742C111.779 159.742 117.32 160.099 122.504 158.196C127.688 156.293 132.872 151.654 132.872 151.654C132.872 151.654 124.59 121.62 121.432 112.64C118.333 103.66 115.533 100.211 110.707 101.222C105.88 102.233 106.059 109.191 106.059 109.191" stroke="black" stroke-miterlimit="10" stroke-linecap="round" stroke-linejoin="round"/>
<path d="M109.336 88.0781L122.862 95.3337L125.066 104.136L107.43 92.3601L109.336 88.0781Z" fill="white" stroke="black" stroke-miterlimit="10" stroke-linecap="round" stroke-linejoin="round"/>
<path d="M4.34961 164.678C6.43504 165.57 11.4997 165.451 11.4997 165.451C11.5592 165.451 10.4271 162.12 10.308 161.942C9.17589 159.623 5.66045 155.816 2.80043 156.173C0.714998 156.471 -0.417093 158.493 0.0595766 160.455C0.59583 162.418 2.62168 163.905 4.34961 164.678Z" fill="black"/>
<path d="M6.13715 179.308C8.28217 179.605 12.8105 178.297 13.168 178.178C13.883 180.676 14.8364 183.233 15.9089 185.731C16.5047 187.158 17.2197 188.585 17.8752 190.013C17.4581 189.418 17.1006 188.883 17.041 188.823C15.3726 186.861 10.9634 184.125 8.28217 185.255C6.37549 186.087 5.83923 188.347 6.79257 190.072C7.74591 191.856 10.1293 192.748 12.0359 192.986C13.9426 193.284 17.8156 192.213 18.8881 191.916C19.186 192.451 19.4243 192.986 19.7222 193.521C21.0331 196.138 22.3439 198.696 23.5356 201.312C23.9527 202.204 24.3698 203.156 24.7273 204.048C24.3698 203.513 24.0719 203.037 24.0123 202.977C22.3439 201.015 17.9347 198.279 15.2535 199.409C13.3468 200.242 12.8105 202.502 13.7639 204.226C14.7172 206.011 17.1006 206.903 19.0072 207.141C20.8543 207.438 24.4294 206.486 25.621 206.13C25.9785 207.081 26.3956 208.033 26.6935 208.925C26.8723 209.579 27.1106 210.174 27.2894 210.828C27.4681 211.482 27.6469 212.136 27.8256 212.731C28.1236 213.98 28.4215 215.229 28.7194 216.418C28.8981 217.251 29.0769 218.083 29.2556 218.856C28.8386 217.964 28.0044 216.18 27.8852 216.061C26.5148 213.861 22.5823 210.471 19.7818 211.185C17.756 211.72 16.8622 213.861 17.5772 215.764C18.2922 217.667 20.4373 218.916 22.2844 219.451C24.3102 220.046 28.779 219.511 29.3748 219.451C29.6727 220.76 29.9111 222.068 30.0898 223.317C30.5665 226.053 30.924 228.491 31.2219 230.572H33.1286C32.7711 228.431 32.354 225.874 31.8178 223.02C31.5794 221.652 31.2219 220.224 30.924 218.738C31.2815 218.619 33.1882 217.845 34.8565 216.894C36.3461 218.5 40.0999 220.343 40.5766 220.581C40.0403 221.83 39.5636 223.079 39.0274 224.209C37.9549 226.588 37.0015 228.729 36.1078 230.572H38.1336C38.9082 228.907 39.7424 227.004 40.5766 224.863C41.1128 223.555 41.6491 222.187 42.1853 220.76C42.7216 220.879 47.1904 221.771 49.2162 221.295C51.0633 220.879 53.3871 219.808 54.2212 217.964C55.0554 216.18 54.2808 213.92 52.3146 213.266C49.5737 212.374 45.4028 215.467 43.8537 217.489C43.7345 217.608 42.9599 219.035 42.4237 219.927C42.662 219.332 42.8407 218.797 43.0791 218.202C43.4962 217.013 43.9132 215.823 44.3303 214.515C44.5091 213.861 44.6878 213.266 44.9262 212.612C45.1049 211.958 45.2837 211.304 45.4624 210.59C45.8199 209.044 46.1179 207.438 46.4158 205.832C47.4287 206.189 51.1825 207.497 53.0891 207.378C54.9958 207.259 57.4388 206.546 58.5113 204.821C59.5838 203.156 59.2263 200.837 57.3792 199.885C54.8171 198.577 50.2291 201.015 48.382 202.799C48.2629 202.918 47.1308 204.345 46.4754 205.178C46.6541 204.226 46.7733 203.215 46.8924 202.264C47.2499 199.409 47.4883 196.495 47.7862 193.64C47.8458 192.748 47.9649 191.856 48.0841 190.964C48.4416 191.083 52.8508 192.748 54.9958 192.57C56.9025 192.451 59.3454 191.737 60.4179 190.013C61.4905 188.347 61.133 186.028 59.2859 185.076C56.7238 183.768 52.1358 186.206 50.2887 187.991C50.1695 188.11 48.5012 190.191 48.0841 190.786C48.2629 188.823 48.5012 186.92 48.7991 185.017C49.2162 182.4 49.7525 179.843 50.4675 177.405C50.6462 177.464 55.2342 179.189 57.4388 179.01C59.3454 178.891 61.7884 178.178 62.8609 176.453C63.9334 174.788 63.5759 172.468 61.7288 171.517C59.1667 170.208 54.5787 172.647 52.7316 174.431C52.6125 174.55 50.7654 176.81 50.4675 177.226C50.527 177.107 50.527 176.929 50.5866 176.81C51.3612 174.253 52.4933 171.814 53.6254 169.614C54.2808 168.305 54.9958 167.116 55.7108 165.986C56.545 166.402 60.2988 168.246 62.3246 168.305C64.2313 168.365 66.7338 167.949 67.9851 166.402C69.2363 164.856 69.1172 162.537 67.3893 161.347C65.0059 159.741 60.1796 161.645 58.1538 163.25C58.0346 163.31 57.0217 164.321 56.3067 165.094C56.6046 164.559 56.9621 164.023 57.26 163.548C58.4517 161.763 59.7029 160.158 60.7755 158.73C61.3713 157.957 61.9671 157.244 62.5034 156.589C63.5163 156.589 67.568 156.47 69.3555 155.638C71.0834 154.805 73.1093 153.318 73.5264 151.296C73.9435 149.334 72.7518 147.312 70.6664 147.074C67.8063 146.777 64.4101 150.702 63.3376 153.021C63.2184 153.199 62.2055 156.53 62.265 156.53H62.3246C61.7884 157.125 61.1925 157.838 60.5967 158.552C59.4646 159.92 58.2133 161.466 56.9621 163.31C55.7108 165.094 54.4 167.056 53.2083 169.316C52.0166 171.517 50.8846 173.896 49.9908 176.512C49.9908 176.512 49.9908 176.572 49.9908 176.631C49.9908 175.799 49.9908 173.42 49.9312 173.242C49.5737 170.684 47.4883 165.986 44.6283 165.451C42.6024 165.094 40.8745 166.7 40.6957 168.662C40.517 170.684 42.0066 172.706 43.4366 174.015C45.0453 175.442 49.5737 176.869 49.9312 176.988C49.1566 179.486 48.5012 182.103 48.0245 184.779C47.7266 186.325 47.5479 187.872 47.3095 189.418C47.3095 188.704 47.3095 188.05 47.2499 187.931C46.8924 185.374 44.807 180.676 41.947 180.14C39.9211 179.783 38.1932 181.389 38.0145 183.352C37.8357 185.374 39.3253 187.396 40.7553 188.704C42.1853 190.013 45.9987 191.262 47.0116 191.618C46.952 192.213 46.8329 192.808 46.7733 193.403C46.4158 196.317 46.1178 199.171 45.7008 201.966C45.5816 202.977 45.4028 203.929 45.2241 204.881C45.2241 204.226 45.2241 203.691 45.1645 203.632C44.807 201.074 42.7216 196.376 39.8616 195.841C37.8357 195.484 36.1078 197.09 35.929 199.052C35.7503 201.074 37.2399 203.096 38.6699 204.405C40.0403 205.654 43.5557 206.843 44.7474 207.259C44.5091 208.27 44.3303 209.222 44.092 210.174C43.9132 210.828 43.7941 211.482 43.5557 212.077C43.377 212.731 43.1387 213.326 42.9599 213.98C42.5428 215.169 42.0662 216.418 41.6491 217.548C41.3512 218.321 41.0532 219.094 40.6957 219.868C40.8745 218.856 41.1128 216.953 41.1128 216.775C41.1724 215.05 40.517 212.315 39.3253 210.352C39.3253 210.114 39.3253 209.876 39.2657 209.579C38.9678 207.616 37.1207 206.13 35.0949 206.665C32.2944 207.378 30.5665 212.315 30.3877 214.872C30.3877 215.05 30.5069 216.656 30.5665 217.727C30.4473 217.132 30.2686 216.537 30.1494 215.883C29.8515 214.634 29.5536 213.445 29.1961 212.136C29.0173 211.482 28.8386 210.887 28.6002 210.233C28.4215 209.579 28.1236 208.925 27.9448 208.271C27.4086 206.784 26.7531 205.297 26.0977 203.751C27.1702 203.513 30.9836 202.502 32.5328 201.372C34.0819 200.182 35.6907 198.279 35.6907 196.257C35.6907 194.295 34.0819 192.57 31.9965 192.748C29.1365 193.046 26.634 197.625 26.0977 200.123C26.0381 200.301 25.919 202.145 25.7998 203.156C25.3827 202.264 24.9656 201.372 24.5485 200.48C23.2973 197.922 21.8673 195.365 20.5564 192.748C20.1393 191.975 19.7222 191.202 19.3052 190.369C19.6627 190.31 24.2506 189.239 25.9785 187.931C27.5277 186.742 29.1365 184.839 29.1365 182.817C29.1365 180.854 27.5277 179.129 25.4423 179.308C22.5823 179.605 20.0798 184.184 19.5435 186.682C19.4839 186.861 19.2456 189.537 19.2456 190.191C18.3518 188.466 17.4581 186.742 16.6835 184.957C15.5514 182.519 14.598 180.14 13.883 177.702C14.0618 177.642 18.8285 176.572 20.616 175.204C22.1652 174.015 23.7739 172.112 23.7739 170.09C23.7739 168.127 22.1652 166.402 20.0798 166.581C17.2197 166.878 14.7172 171.457 14.181 173.955C14.1214 174.134 13.883 176.988 13.883 177.524C13.8235 177.405 13.7639 177.226 13.7639 177.107C12.9893 174.49 12.5722 171.933 12.3339 169.435C12.1551 168.008 12.0955 166.64 12.0359 165.272C12.9297 165.153 17.1006 164.618 18.8285 163.548C20.4968 162.537 22.2843 160.812 22.5227 158.79C22.7014 156.827 21.331 154.924 19.2456 154.924C16.3856 154.924 13.4064 159.206 12.5722 161.644C12.5126 161.763 12.2147 163.191 12.0359 164.202C12.0359 163.607 11.9764 162.953 12.0359 162.418C12.0359 160.217 12.1551 158.255 12.3339 156.47C12.3934 155.459 12.5126 154.567 12.6318 153.735C13.466 153.14 16.8026 150.821 17.8156 149.155C18.8285 147.49 19.6627 145.171 18.8881 143.268C18.1731 141.424 16.0281 140.413 14.181 141.365C11.6189 142.673 10.9634 147.847 11.3805 150.345C11.4401 150.583 12.3934 153.913 12.453 153.913C12.453 153.913 12.5126 153.913 12.5126 153.854C12.3934 154.686 12.2743 155.519 12.2147 156.47C12.0359 158.255 11.8572 160.217 11.7976 162.418C11.738 164.618 11.738 166.997 11.9764 169.495C12.2147 171.993 12.5722 174.609 13.2872 177.286C13.2872 177.345 13.2872 177.345 13.2872 177.405C12.8105 176.691 11.4997 174.728 11.3805 174.609C9.71218 172.647 5.30298 169.911 2.62171 171.041C0.715031 171.874 0.178777 174.134 1.13212 175.858C1.84712 178.118 4.23047 179.01 6.13715 179.308Z" fill="black"/>
<path d="M55.5916 165.748C55.6512 165.748 56.4854 162.418 56.5449 162.18C56.9024 159.622 56.0683 154.508 53.5062 153.259C51.6591 152.367 49.5736 153.437 48.8586 155.34C48.1436 157.243 49.0374 159.563 50.1099 161.228C51.3016 163.072 55.532 165.748 55.5916 165.748Z" fill="black"/>
<path d="M295.357 188.288C296.668 188.883 299.945 188.823 299.945 188.823C300.004 188.823 299.23 186.682 299.17 186.563C298.455 185.077 296.191 182.638 294.344 182.876C293.033 183.054 292.258 184.363 292.556 185.612C292.914 186.861 294.225 187.812 295.357 188.288Z" fill="black"/>
<path d="M296.489 197.685C297.859 197.863 300.779 197.031 301.017 196.971C301.494 198.577 302.09 200.242 302.805 201.848C303.222 202.799 303.639 203.691 304.056 204.583C303.818 204.167 303.579 203.87 303.52 203.81C302.447 202.561 299.587 200.777 297.919 201.491C296.668 202.026 296.31 203.453 296.965 204.583C297.621 205.713 299.11 206.308 300.302 206.487C301.553 206.665 304.056 206.011 304.711 205.832C304.89 206.189 305.069 206.546 305.248 206.903C306.082 208.568 306.916 210.233 307.691 211.898C307.988 212.493 308.227 213.088 308.465 213.623C308.227 213.266 308.048 212.969 307.988 212.969C306.916 211.72 304.056 209.936 302.388 210.65C301.136 211.185 300.779 212.612 301.434 213.742C302.09 214.872 303.579 215.467 304.771 215.645C305.963 215.824 308.227 215.229 309.061 214.991C309.299 215.586 309.538 216.18 309.716 216.775C309.836 217.191 310.014 217.548 310.133 217.965C310.253 218.381 310.372 218.797 310.491 219.214C310.67 219.987 310.908 220.819 311.027 221.592C311.146 222.128 311.266 222.663 311.385 223.139C311.146 222.544 310.551 221.414 310.491 221.355C309.597 219.987 307.095 217.786 305.307 218.203C303.996 218.559 303.46 219.927 303.877 221.117C304.354 222.366 305.724 223.139 306.916 223.496C308.227 223.912 311.087 223.555 311.444 223.496C311.623 224.328 311.802 225.161 311.921 225.993C312.219 227.718 312.457 229.324 312.636 230.632H313.828C313.589 229.264 313.351 227.599 312.994 225.815C312.815 224.923 312.636 224.031 312.398 223.079C312.636 223.02 313.828 222.485 314.9 221.89C315.854 222.901 318.296 224.09 318.594 224.269C318.237 225.101 317.939 225.874 317.641 226.588C316.986 228.134 316.33 229.502 315.794 230.632H317.105C317.581 229.562 318.118 228.313 318.654 227.004C319.011 226.172 319.309 225.28 319.667 224.388C320.024 224.447 322.884 225.042 324.195 224.744C325.387 224.447 326.877 223.793 327.413 222.603C327.949 221.414 327.472 219.987 326.221 219.57C324.493 218.976 321.812 220.998 320.799 222.306C320.739 222.366 320.203 223.317 319.905 223.912C320.024 223.555 320.203 223.198 320.322 222.782C320.62 222.009 320.859 221.236 321.156 220.403C321.276 219.987 321.395 219.57 321.514 219.154C321.633 218.738 321.752 218.321 321.872 217.846C322.11 216.835 322.289 215.824 322.467 214.813C323.123 215.051 325.506 215.883 326.757 215.824C328.009 215.764 329.558 215.288 330.273 214.218C330.988 213.147 330.749 211.661 329.558 211.066C327.889 210.233 324.97 211.78 323.778 212.969C323.719 213.028 322.944 213.98 322.587 214.515C322.706 213.921 322.765 213.266 322.884 212.612C323.123 210.769 323.302 208.925 323.48 207.081C323.54 206.487 323.599 205.951 323.659 205.357C323.897 205.416 326.698 206.487 328.128 206.368C329.379 206.308 330.928 205.832 331.643 204.762C332.358 203.691 332.12 202.205 330.928 201.61C329.26 200.777 326.34 202.324 325.149 203.513C325.089 203.572 324.017 204.94 323.719 205.297C323.838 204.048 324.016 202.799 324.195 201.61C324.434 199.945 324.791 198.279 325.268 196.733C325.387 196.793 328.307 197.863 329.737 197.804C330.988 197.744 332.537 197.268 333.252 196.198C333.967 195.127 333.729 193.641 332.537 193.046C330.869 192.213 327.949 193.76 326.757 194.949C326.638 195.068 325.506 196.495 325.327 196.733C325.327 196.614 325.387 196.555 325.387 196.436C325.923 194.771 326.579 193.224 327.353 191.797C327.77 190.964 328.247 190.191 328.664 189.478C329.2 189.715 331.584 190.905 332.894 190.964C334.146 191.024 335.695 190.726 336.529 189.715C337.363 188.704 337.244 187.218 336.172 186.504C334.622 185.493 331.524 186.682 330.213 187.753C330.154 187.812 329.498 188.467 329.022 188.942C329.26 188.586 329.439 188.288 329.677 187.991C330.452 186.801 331.226 185.79 331.941 184.898C332.358 184.363 332.716 183.947 333.073 183.53C333.729 183.53 336.35 183.411 337.482 182.876C338.615 182.341 339.866 181.389 340.164 180.081C340.402 178.832 339.687 177.524 338.317 177.405C336.47 177.226 334.265 179.724 333.61 181.211C333.55 181.33 332.894 183.471 332.894 183.471H332.954C332.597 183.887 332.239 184.304 331.822 184.779C331.107 185.671 330.273 186.682 329.498 187.812C328.664 188.942 327.83 190.251 327.055 191.678C326.281 193.105 325.566 194.652 324.97 196.317V196.376C324.97 195.841 324.97 194.295 324.97 194.176C324.732 192.511 323.361 189.478 321.574 189.18C320.263 188.942 319.131 189.953 319.071 191.262C318.952 192.57 319.905 193.878 320.859 194.711C321.871 195.663 324.791 196.555 325.029 196.614C324.493 198.22 324.136 199.885 323.838 201.61C323.659 202.621 323.54 203.572 323.361 204.583C323.361 204.108 323.361 203.691 323.361 203.632C323.123 201.967 321.752 198.934 319.965 198.636C318.654 198.398 317.522 199.409 317.462 200.718C317.343 202.026 318.296 203.335 319.25 204.167C320.203 205 322.646 205.832 323.301 206.011C323.242 206.368 323.182 206.784 323.182 207.141C322.944 208.984 322.765 210.828 322.467 212.672C322.348 213.326 322.289 213.921 322.169 214.575C322.169 214.158 322.169 213.802 322.169 213.742C321.931 212.077 320.561 209.044 318.773 208.746C317.462 208.509 316.33 209.52 316.271 210.828C316.151 212.136 317.105 213.445 318.058 214.277C318.952 215.051 321.216 215.824 321.991 216.121C321.872 216.775 321.693 217.37 321.574 218.024C321.454 218.44 321.395 218.857 321.216 219.273C321.097 219.689 320.978 220.106 320.799 220.462C320.501 221.236 320.263 222.009 319.965 222.722C319.786 223.258 319.548 223.733 319.369 224.209C319.488 223.555 319.667 222.306 319.667 222.247C319.667 221.176 319.309 219.392 318.535 218.143C318.535 217.965 318.535 217.846 318.475 217.667C318.296 216.418 317.105 215.467 315.794 215.824C314.006 216.299 312.874 219.451 312.815 221.057C312.815 221.176 312.874 222.187 312.934 222.901C312.815 222.484 312.755 222.128 312.636 221.711C312.457 220.938 312.219 220.165 312.04 219.273C311.921 218.857 311.802 218.44 311.683 218.024C311.563 217.608 311.385 217.191 311.266 216.775C310.908 215.824 310.491 214.872 310.074 213.861C310.789 213.683 313.232 213.088 314.185 212.315C315.139 211.542 316.211 210.352 316.211 209.044C316.211 207.795 315.198 206.665 313.828 206.784C311.981 206.962 310.372 209.936 310.074 211.542C310.074 211.661 309.955 212.85 309.895 213.504C309.657 212.91 309.359 212.374 309.061 211.78C308.227 210.114 307.333 208.449 306.499 206.843C306.201 206.368 305.963 205.832 305.724 205.357C305.963 205.297 308.882 204.643 310.014 203.751C310.968 202.978 312.04 201.788 312.04 200.48C312.04 199.231 311.027 198.101 309.657 198.22C307.81 198.398 306.201 201.372 305.903 202.978C305.903 203.097 305.724 204.821 305.724 205.238C305.128 204.108 304.592 203.037 304.056 201.907C303.341 200.361 302.745 198.815 302.268 197.268C302.388 197.268 305.426 196.555 306.558 195.663C307.512 194.89 308.584 193.7 308.584 192.392C308.584 191.143 307.571 190.013 306.201 190.132C304.354 190.31 302.745 193.284 302.447 194.89C302.447 195.008 302.268 196.852 302.268 197.209C302.268 197.09 302.209 197.031 302.149 196.912C301.673 195.246 301.375 193.581 301.196 191.975C301.077 191.083 301.017 190.191 301.017 189.299C301.613 189.24 304.235 188.883 305.367 188.229C306.439 187.574 307.571 186.504 307.75 185.196C307.869 183.947 306.976 182.698 305.665 182.698C303.818 182.698 301.911 185.433 301.375 186.98C301.375 187.039 301.136 187.991 301.017 188.645C301.017 188.229 301.017 187.872 301.017 187.456C301.017 186.088 301.136 184.779 301.196 183.649C301.256 182.995 301.315 182.4 301.375 181.865C301.911 181.508 304.056 179.962 304.711 178.892C305.367 177.821 305.903 176.334 305.426 175.085C304.95 173.896 303.579 173.242 302.388 173.836C300.719 174.669 300.302 177.999 300.6 179.605C300.6 179.724 301.256 181.925 301.256 181.865C301.256 181.865 301.256 181.865 301.315 181.865C301.256 182.4 301.196 182.936 301.077 183.53C300.958 184.66 300.838 185.969 300.838 187.337C300.779 188.764 300.779 190.251 300.958 191.856C301.077 193.462 301.315 195.127 301.792 196.852V196.912C301.494 196.436 300.66 195.187 300.541 195.127C299.468 193.879 296.608 192.094 294.94 192.808C293.688 193.343 293.331 194.771 293.986 195.901C293.748 196.971 295.238 197.506 296.489 197.685Z" fill="black"/>
<path d="M328.247 189.002C328.247 189.002 328.843 186.861 328.843 186.682C329.081 185.077 328.545 181.746 326.877 180.973C325.685 180.378 324.314 181.092 323.897 182.281C323.421 183.53 324.017 185.017 324.672 186.028C325.447 187.277 328.247 189.002 328.247 189.002Z" fill="black"/>
<path d="M354.702 35.029H207.947V31.9365C207.947 29.9739 209.556 28.3682 211.522 28.3682H351.067C353.034 28.3682 354.642 29.9739 354.642 31.9365V35.029H354.702Z" fill="black"/>
<path d="M337.84 33.4826C338.794 33.4826 339.568 32.7104 339.568 31.7579C339.568 30.8054 338.794 30.0332 337.84 30.0332C336.886 30.0332 336.112 30.8054 336.112 31.7579C336.112 32.7104 336.886 33.4826 337.84 33.4826Z" fill="white" stroke="#263238" stroke-miterlimit="10" stroke-linecap="round" stroke-linejoin="round"/>
<path d="M343.62 33.4826C344.574 33.4826 345.347 32.7104 345.347 31.7579C345.347 30.8054 344.574 30.0332 343.62 30.0332C342.665 30.0332 341.892 30.8054 341.892 31.7579C341.892 32.7104 342.665 33.4826 343.62 33.4826Z" fill="white" stroke="#263238" stroke-miterlimit="10" stroke-linecap="round" stroke-linejoin="round"/>
<path d="M349.399 33.4826C350.354 33.4826 351.127 32.7104 351.127 31.7579C351.127 30.8054 350.354 30.0332 349.399 30.0332C348.445 30.0332 347.671 30.8054 347.671 31.7579C347.671 32.7104 348.445 33.4826 349.399 33.4826Z" fill="white" stroke="#263238" stroke-miterlimit="10" stroke-linecap="round" stroke-linejoin="round"/>
<path d="M351.127 161.169H211.522C209.556 161.169 207.947 159.563 207.947 157.601V31.9365C207.947 29.9739 209.556 28.3682 211.522 28.3682H351.067C353.034 28.3682 354.642 29.9739 354.642 31.9365V157.601C354.702 159.563 353.093 161.169 351.127 161.169Z" stroke="black" stroke-miterlimit="10" stroke-linecap="round" stroke-linejoin="round"/>
<path d="M235.713 43.5928H214.74V56.5576H235.713V43.5928Z" fill="white" stroke="black" stroke-miterlimit="10" stroke-linecap="round" stroke-linejoin="round"/>
<path d="M235.713 63.8726H214.74V76.8374H235.713V63.8726Z" fill="white" stroke="black" stroke-miterlimit="10" stroke-linecap="round" stroke-linejoin="round"/>
<path d="M235.713 84.1528H214.74V97.1177H235.713V84.1528Z" fill="white" stroke="black" stroke-miterlimit="10" stroke-linecap="round" stroke-linejoin="round"/>
<path d="M290.173 31.4607C290.173 31.4607 288.981 24.8593 292.377 22.0047C295.774 19.15 306.082 23.1941 308.405 27.4166C310.789 31.6391 310.253 38.5379 306.558 40.9168C302.864 43.2956 297.919 42.7604 297.085 42.1062C296.25 41.3925 290.173 31.4607 290.173 31.4607Z" fill="black" stroke="black" stroke-miterlimit="10" stroke-linecap="round" stroke-linejoin="round"/>
<path d="M268.604 47.102C268.604 47.102 263.896 47.2804 261.156 42.7011C258.474 38.1217 266.22 30.5688 277.184 29.3794C288.147 28.1899 294.403 30.7472 296.965 36.8134C299.528 42.8795 298.634 51.5029 293.39 53.8223C288.147 56.2012 286.121 55.666 285.108 54.1792C284.095 52.6329 281.057 44.7231 281.057 44.7231C281.057 44.7231 277.72 46.9236 274.324 47.5778C270.927 48.2914 268.604 47.102 268.604 47.102Z" fill="black" stroke="black" stroke-miterlimit="10" stroke-linecap="round" stroke-linejoin="round"/>
<path d="M258.474 79.9897L251.861 109.726L241.851 102.292L240.54 106.157C240.54 106.157 251.741 121.323 252.576 121.144C255.972 120.55 262.824 112.818 262.824 112.818L258.474 79.9897Z" fill="white" stroke="#263238" stroke-miterlimit="10" stroke-linecap="round" stroke-linejoin="round"/>
<path d="M262.824 112.878L258.534 80.5843C258.534 80.4654 258.355 80.4654 258.355 80.5843L251.86 109.726L249.06 107.644L245.902 113.234C248.941 117.16 252.218 121.263 252.635 121.204C255.972 120.549 262.824 112.878 262.824 112.878Z" fill="black" stroke="black" stroke-miterlimit="10" stroke-linecap="round" stroke-linejoin="round"/>
<path d="M300.362 161.169C300.66 134.288 289.815 115.851 289.815 115.851L286.419 112.818H262.764C250.788 128.638 249.179 152.783 248.941 161.169H300.362Z" fill="white" stroke="black" stroke-miterlimit="10" stroke-linecap="round" stroke-linejoin="round"/>
<path d="M283.619 130.72C278.792 136.013 270.331 145.231 268.961 146.539" stroke="black" stroke-miterlimit="10" stroke-linecap="round" stroke-linejoin="round"/>
<path d="M287.015 127.032C287.015 127.032 286.121 128.043 284.751 129.53" stroke="black" stroke-miterlimit="10" stroke-linecap="round" stroke-linejoin="round"/>
<path d="M268.842 149.929L267.531 151.237" stroke="black" stroke-miterlimit="10" stroke-linecap="round" stroke-linejoin="round"/>
<path d="M279.329 138.927L270.093 148.621" stroke="black" stroke-miterlimit="10" stroke-linecap="round" stroke-linejoin="round"/>
<path d="M272.476 66.1926C272.476 66.1926 275.873 66.7278 278.196 66.5494C280.58 66.371 282.904 64.5273 282.904 64.5273L283.082 74.9944L297.085 81.0605L289.815 115.971C289.815 115.971 282.546 122.572 272.417 121.026C265.565 120.015 259.785 117.16 259.785 117.16C259.785 117.16 260.143 103.125 258.951 95.869C257.759 88.6135 258.415 80.0495 258.415 80.0495L272.596 74.1618L272.417 67.4415V66.1926H272.476Z" fill="black" stroke="black" stroke-miterlimit="10" stroke-linecap="round" stroke-linejoin="round"/>
<path d="M285.585 76.0053L283.142 74.9348L282.963 64.4678C282.963 64.4678 280.58 66.3114 278.256 66.4898C275.873 66.6682 272.536 66.133 272.536 66.133V67.3224L272.715 74.0428L269.14 75.5296L267.65 85.8182L284.393 86.8292L285.585 76.0053Z" fill="white" stroke="black" stroke-miterlimit="10" stroke-linecap="round" stroke-linejoin="round"/>
<path d="M272.655 68.3334C272.655 68.3334 277.72 69.7013 282.963 69.9392L282.904 64.4678C282.904 64.4678 280.52 66.3114 278.197 66.4898C276.826 66.6088 275.158 66.4898 273.966 66.3114L272.655 68.3334Z" fill="black" stroke="black" stroke-miterlimit="10" stroke-linecap="round" stroke-linejoin="round"/>
<path d="M285.823 38.3594C285.823 38.3594 282.427 40.3814 277.72 42.7603C273.013 45.1392 267.591 45.3176 267.591 45.3176C267.591 45.3176 265.744 53.7626 265.207 56.9741C264.671 60.1856 268.723 67.7385 271.642 68.4522C278.018 69.9984 282.189 67.2033 283.559 66.668C284.929 66.1328 287.849 59.353 288.862 57.3309C289.875 55.3089 288.505 53.941 288.505 53.941C288.505 53.941 284.81 42.4035 285.823 38.3594Z" fill="white" stroke="black" stroke-miterlimit="10" stroke-linecap="round" stroke-linejoin="round"/>
<path d="M271.438 49.9923C271.555 49.1131 271.306 48.3549 270.881 48.2989C270.457 48.2429 270.019 48.9102 269.902 49.7894C269.786 50.6686 270.035 51.4268 270.459 51.4828C270.883 51.5388 271.322 50.8715 271.438 49.9923Z" fill="black" stroke="black" stroke-miterlimit="10"/>
<path d="M280.764 51.673C280.881 50.7938 280.632 50.0356 280.208 49.9796C279.783 49.9236 279.345 50.5909 279.229 51.4701C279.112 52.3493 279.361 53.1074 279.785 53.1634C280.209 53.2195 280.648 52.5522 280.764 51.673Z" fill="black" stroke="black" stroke-miterlimit="10"/>
<path d="M275.039 49.4805L274.145 54.5951C274.145 54.5951 272.476 54.5951 271.881 55.2492C271.344 55.9034 272.715 57.0334 273.906 57.2713" stroke="black" stroke-miterlimit="10" stroke-linecap="round" stroke-linejoin="round"/>
<path d="M278.077 47.3393C278.077 47.3393 280.997 46.2093 283.082 49.2424" stroke="black" stroke-miterlimit="10" stroke-linecap="round" stroke-linejoin="round"/>
<path d="M274.085 46.5069C274.085 46.5069 273.43 43.4143 269.676 45.1985" stroke="black" stroke-miterlimit="10" stroke-linecap="round" stroke-linejoin="round"/>
<path d="M271.702 59.7096C271.702 59.7096 275.039 61.4937 279.329 57.9849" stroke="black" stroke-miterlimit="10" stroke-linecap="round" stroke-linejoin="round"/>
<path d="M286.479 55.5469C286.479 55.5469 289.696 51.9786 291.365 53.7033C293.033 55.3685 291.901 58.7584 289.815 59.4126C287.73 60.0668 285.764 59.4126 285.764 59.4126" fill="white"/>
<path d="M286.479 55.5469C286.479 55.5469 289.696 51.9786 291.365 53.7033C293.033 55.3685 291.901 58.7584 289.815 59.4126C287.73 60.0668 285.764 59.4126 285.764 59.4126" stroke="black" stroke-miterlimit="10" stroke-linecap="round" stroke-linejoin="round"/>
<path d="M297.085 81.0011L305.367 102.768L318.892 85.0452C318.892 85.0452 317.879 81.3579 318.535 79.6332C319.19 77.968 320.382 76.6001 320.918 75.5891C321.454 74.5781 321.276 71.9019 322.467 73.0318C323.659 74.2213 323.123 76.4217 323.123 76.4217C323.123 76.4217 327.353 71.3666 328.187 71.0098C329.022 70.6529 329.737 71.3666 329.737 71.3666C329.737 71.3666 331.286 69.9988 331.584 71.1882C331.941 72.3776 330.392 75.0539 330.392 75.0539L331.941 74.2213C331.941 74.2213 332.954 73.7455 332.954 74.5781C332.954 75.4107 329.379 78.979 329.379 78.979C329.379 78.979 331.584 76.957 332.418 77.6112C333.252 78.2654 328.545 82.0121 328.009 83.0231C327.532 84.0341 326.996 85.0452 325.804 85.6993C324.612 86.3535 323.123 86.8888 323.123 86.8888C323.123 86.8888 312.636 110.142 310.789 114.008C308.942 117.874 306.38 118.885 305.069 118.409C303.758 117.933 292.914 101.697 292.914 101.697L297.085 81.0011Z" fill="white" stroke="black" stroke-miterlimit="10" stroke-linecap="round" stroke-linejoin="round"/>
<path d="M310.61 95.8689L305.367 102.708L297.085 80.9414L292.854 101.697C292.854 101.697 303.639 117.873 305.009 118.409C306.38 118.944 308.882 117.873 310.729 114.008C311.563 112.224 314.304 106.276 316.986 100.389C314.185 99.4966 311.921 97.3557 310.61 95.8689Z" fill="black" stroke="black" stroke-miterlimit="10" stroke-linecap="round" stroke-linejoin="round"/>
<path d="M323.123 76.4219L322.527 77.9681C322.527 77.9681 323.421 80.0497 323.301 81.2986C323.123 82.5475 322.229 83.499 322.229 83.499" stroke="#263238" stroke-miterlimit="10" stroke-linecap="round" stroke-linejoin="round"/>
<path d="M329.677 71.3667L326.102 76.1839" stroke="#263238" stroke-miterlimit="10" stroke-linecap="round" stroke-linejoin="round"/>
<path d="M330.392 75.1133L328.068 77.5516" stroke="#263238" stroke-miterlimit="10" stroke-linecap="round" stroke-linejoin="round"/>
<path d="M325.208 75.7676C325.208 75.7676 327.532 77.3138 329.379 78.9791" stroke="#263238" stroke-miterlimit="10" stroke-linecap="round" stroke-linejoin="round"/>
<path d="M241.731 97.8316L249.596 116.03L264.433 111.332L259.249 93.4307L241.731 97.8316Z" fill="black"/>
<path d="M241.731 97.8313L235.356 89.4458L243.459 107.942L249.596 116.03L241.731 97.8313Z" fill="black"/>
<path d="M241.731 97.8314C241.731 97.8314 242.148 96.1067 242.029 94.5605C241.91 93.0142 236.488 87.7212 236.488 87.7212L235.356 89.4459L241.731 97.8314Z" fill="white" stroke="black" stroke-miterlimit="10" stroke-linecap="round" stroke-linejoin="round"/>
<path d="M241.731 97.8315C241.731 97.8315 242.148 95.1552 244.174 93.8468C246.141 92.5385 258.117 91.2896 258.594 91.2896C259.07 91.2896 259.309 93.4305 259.309 93.4305L241.731 97.8315Z" fill="white" stroke="black" stroke-miterlimit="10" stroke-linecap="round" stroke-linejoin="round"/>
<path d="M240.599 108.358C240.599 108.358 241.314 109.488 242.446 110.201C243.578 110.915 244.472 110.915 243.996 110.142C243.519 109.369 242.327 108.06 242.327 108.06C242.327 108.06 240.599 107.525 240.599 108.358Z" fill="white" stroke="#263238" stroke-miterlimit="10" stroke-linecap="round" stroke-linejoin="round"/>
<path d="M238.693 104.611C238.693 104.611 239.05 107.05 239.825 107.823C240.599 108.596 243.519 109.726 243.995 109.131C244.472 108.536 242.625 108.061 241.433 106.693C240.301 105.325 238.693 104.611 238.693 104.611Z" fill="white" stroke="#263238" stroke-miterlimit="10" stroke-linecap="round" stroke-linejoin="round"/>
<path d="M237.977 101.875C237.977 101.875 237.799 103.838 238.812 105.028C239.825 106.276 242.506 107.882 243.519 107.466C244.532 107.109 242.744 106.039 242.148 105.325C241.433 104.671 237.977 101.875 237.977 101.875Z" fill="white" stroke="#263238" stroke-miterlimit="10" stroke-linecap="round" stroke-linejoin="round"/>
<path d="M238.871 97.8911C238.871 97.8911 237.501 100.567 237.978 101.935C238.454 103.303 242.208 105.741 242.923 105.741C243.578 105.741 244.293 104.968 243.161 103.838C242.029 102.708 240.361 100.924 240.361 100.924L238.871 97.8911Z" fill="white" stroke="#263238" stroke-miterlimit="10" stroke-linecap="round" stroke-linejoin="round"/>
<path d="M179.645 14.9868H145.086V51.4431H179.645V14.9868Z" stroke="black" stroke-miterlimit="10" stroke-linecap="round" stroke-linejoin="round"/>
<path d="M179.645 14.9868H145.086V21.2908H179.645V14.9868Z" stroke="black" stroke-miterlimit="10" stroke-linecap="round" stroke-linejoin="round"/>
<path d="M162.664 46.3285C168.719 46.3285 173.627 41.4293 173.627 35.3857C173.627 29.3421 168.719 24.4429 162.664 24.4429C156.609 24.4429 151.7 29.3421 151.7 35.3857C151.7 41.4293 156.609 46.3285 162.664 46.3285Z" fill="black"/>
<path d="M168.979 35.6237L159.446 30.0928V41.0951L168.979 35.6237Z" fill="white"/>
<path d="M333.431 149.929C331.703 149.929 330.332 148.561 330.332 146.836V137.797C330.332 136.072 331.703 134.704 333.431 134.704C335.159 134.704 336.529 136.072 336.529 137.797V146.836C336.589 148.502 335.159 149.929 333.431 149.929Z" fill="white" stroke="black" stroke-miterlimit="10" stroke-linecap="round" stroke-linejoin="round"/>
<path d="M338.912 147.074V144.576C338.912 144.22 338.674 143.982 338.317 143.982C337.959 143.982 337.721 144.22 337.721 144.576V147.074C337.721 149.453 335.814 151.356 333.431 151.356C331.047 151.356 329.141 149.453 329.141 147.074V144.398C329.141 144.041 328.902 143.803 328.545 143.803C328.187 143.803 327.949 144.041 327.949 144.398V147.074C327.949 149.869 330.094 152.189 332.835 152.486V154.984H329.796C329.439 154.984 329.2 155.222 329.2 155.579C329.2 155.935 329.439 156.173 329.796 156.173H337.304C337.661 156.173 337.899 155.935 337.899 155.579C337.899 155.222 337.661 154.984 337.304 154.984H334.026V152.486C336.767 152.189 338.912 149.869 338.912 147.074Z" fill="black" stroke="black" stroke-miterlimit="10"/>
<path d="M252.337 172.766H273.906" stroke="black" stroke-miterlimit="10" stroke-linecap="round"/>
<path d="M252.337 178.356H273.906" stroke="black" stroke-miterlimit="10" stroke-linecap="round"/>
<path d="M252.337 183.946H273.906" stroke="black" stroke-miterlimit="10" stroke-linecap="round"/>
<path d="M252.337 189.537H273.906" stroke="black" stroke-miterlimit="10" stroke-linecap="round"/>
<path d="M170.112 69.582H191.681" stroke="black" stroke-miterlimit="10" stroke-linecap="round"/>
<path d="M170.112 75.1724H191.681" stroke="black" stroke-miterlimit="10" stroke-linecap="round"/>
<path d="M170.112 80.7627H191.681" stroke="black" stroke-miterlimit="10" stroke-linecap="round"/>
<path d="M170.112 86.353H191.681" stroke="black" stroke-miterlimit="10" stroke-linecap="round"/>
<path d="M243.876 181.508H210.748V202.086H243.876V181.508Z" fill="white" stroke="black" stroke-miterlimit="10" stroke-linecap="round" stroke-linejoin="round"/>
<path d="M210.748 181.508L227.312 191.143L243.936 181.508" stroke="black" stroke-miterlimit="10" stroke-linecap="round" stroke-linejoin="round"/>
</g>
<defs>
<clipPath id="clip0_1_1346">
<rect width="355" height="232" fill="white"/>
</clipPath>
</defs>
</svg>
