<svg width="1153" height="808" viewBox="0 0 1153 808" fill="none" xmlns="http://www.w3.org/2000/svg">
<g clip-path="url(#clip0_1_3)">
<path d="M-78.57 345.669C-50.2447 350.703 -20.813 356.173 7.48572 355.248C56.1533 353.599 68.2549 289.964 106.715 272.048C142.72 255.266 180.017 254.211 219.352 270.229C261.216 287.244 297.244 314.905 335.377 338.147C375.604 362.563 404.482 331.427 429.358 303.963C453.283 277.524 475.07 252.341 514.617 252.523C553.789 252.732 592.386 253.94 628.71 245.155C676.331 233.647 695.756 212.607 703.395 164.009C709.03 127.916 731.044 98.4495 765.937 84.0276C801.444 68.973 840.553 70.732 876.919 79.4574C928.66 91.7901 971.654 135.141 1025.13 149.556C1048.59 155.822 1076.36 152.065 1093.58 135.231" stroke="black" stroke-width="0.5" stroke-miterlimit="10"/>
<path d="M-76.0293 350.344C-47.367 354.985 -17.6192 360.58 10.9748 360.296C14.0793 360.294 17.1451 359.927 20.0528 359.498C62.601 352.99 76.3216 299.614 111.498 282.155C146.952 264.455 183.124 262.083 222.262 277.674C264.148 294.171 299.188 321.094 336.886 344.514C372.016 366.573 397.625 347.445 421.744 322.832C424.539 319.909 427.452 316.683 430.366 313.457C451.061 290.119 470.793 264.127 504.674 260.153C508.274 259.822 512.032 259.552 516.046 259.559C553.676 259.511 589.901 259.784 626.539 252.522C644.185 248.976 663.99 243.656 677.575 234.662C698.249 221.112 705.115 200.899 709.422 175.13C711.104 165.296 713.225 153.885 717.025 143.311C724.863 121.557 745.152 102.957 765.838 93.0858C778.229 87.1202 791.763 83.3539 805.965 81.6001C828.612 78.7994 852.455 80.8431 874.392 86.3349C898.504 92.333 920.602 105.76 942.485 117.879C968.713 132.408 996.087 147.738 1025.32 155.577C1049.09 161.967 1075.81 157.624 1093.96 141.679" stroke="black" stroke-width="0.5" stroke-miterlimit="10"/>
<path d="M-73.3902 355.232C-44.2925 359.695 -14.5834 364.924 14.4041 365.495C17.5087 365.494 20.6729 365.34 23.7387 364.974C66.3226 360.229 82.4885 309.915 116.538 292.537C151.359 274.588 186.073 269.892 225.232 284.966C267.139 300.947 301.094 326.917 338.237 350.819C373.089 373.119 398.099 356.904 422.594 332.263C425.388 329.34 428.302 326.114 431.216 322.888C451.791 299.853 472.498 270.922 506.38 266.948C509.821 266.554 513.421 266.222 517.435 266.229C553.682 265.986 588.523 266.064 623.855 259.337C641.817 255.915 661.503 250.899 676.766 242.74C699.969 230.187 710.467 212.804 715.628 185.796C717.468 176.025 719.431 164.552 722.598 153.729C728.916 131.2 745.507 112.719 765.82 101.476C777.263 95.1366 790.343 90.6669 804.13 88.5749C826.482 85.1331 850.009 87.0523 871.908 92.1789C896.613 98.0609 919.245 111.524 941.623 123.312C968.663 137.636 996.254 152.877 1026.08 160.6C1050.13 166.75 1075.9 162.032 1094.76 147.067" stroke="black" stroke-width="0.5" stroke-miterlimit="10"/>
<path d="M-70.6915 359.969C-41.2567 364.04 -11.4283 368.966 17.8544 370.178C21.0574 370.39 24.2216 370.237 27.2874 369.87C69.907 366.889 88.1007 320.698 121.419 302.857C155.391 284.748 188.646 277.728 228.006 291.832C270.112 306.842 302.901 332.528 339.608 356.608C372.406 378.098 398.809 367.155 423.285 341.632C426.08 338.709 429.092 335.697 432.006 332.471C451.967 310.069 474.383 277.262 507.927 273.68C511.527 273.349 514.751 273.044 518.449 272.926C553.252 272.639 586.492 272.611 620.419 266.206C638.757 262.757 658.127 257.616 674.198 250.651C698.88 239.904 714.377 224.665 720.646 196.695C722.743 187.199 724.766 175.575 727.399 164.717C732.649 142.118 745.149 122.899 764.99 110.071C775.545 103.207 787.894 98.2745 801.169 95.6306C823.127 91.334 846.496 93.191 868.296 98.1039C893.594 103.87 917.076 117.492 940.146 129.378C967.78 143.586 995.964 158.711 1026.22 166.256C1050.49 172.316 1075.64 167.35 1094.95 153.088" stroke="black" stroke-width="0.5" stroke-miterlimit="10"/>
<path d="M-68.0524 364.857C-38.4387 368.474 -8.39259 373.311 21.1854 375.164C24.3883 375.376 27.7106 375.285 30.8151 375.283C73.3721 373.852 93.5726 332.3 126.536 313.969C159.935 295.46 191.417 285.992 230.818 299.062C273.123 313.102 305.438 338.6 341.236 362.672C374.902 385.204 398.474 375.42 424.233 351.278C427.126 348.568 429.98 345.494 432.894 342.268C453.291 319.687 475.569 286.302 508.92 280.894C512.421 280.349 516.021 280.017 519.659 280.051C552.959 279.871 584.658 279.586 617.081 273.288C635.419 269.84 654.413 264.726 670.998 258.312C696.172 248.634 717.26 235.423 725.072 207.71C727.643 198.401 729.922 187.053 732.239 176.07C736.696 154.558 745.563 132.509 764.101 118.818C773.925 111.491 785.129 105.758 797.989 102.776C819.554 97.6241 842.983 99.3297 864.625 104.18C890.675 109.892 915.006 123.675 938.828 135.507C966.897 149.536 995.517 164.483 1026.21 171.849C1050.54 177.758 1074.95 172.329 1094.97 159.047" stroke="black" stroke-width="0.5" stroke-miterlimit="10"/>
<path d="M-65.3537 369.593C-35.3433 372.667 -5.11824 377.049 24.5373 379.633C27.7402 379.845 31.1609 379.968 34.2654 379.966C75.2178 379.827 101.26 343.375 131.636 324.2C162.723 304.605 194.327 293.436 233.612 305.411C276.019 318.266 307.463 344.121 343.163 367.979C376.196 390.262 398.751 384.451 425.36 360.468C428.193 357.911 431.205 354.899 434.119 351.673C454.951 328.913 477.132 295.314 510.387 288.294C513.79 287.535 517.449 287.052 521.147 286.934C552.887 285.616 583.378 286.079 614.457 279.952C632.478 276.379 651.195 271.505 667.759 265.608C692.357 256.928 719.711 244.96 729.616 218.422C732.977 209.424 735.671 198.414 737.771 187.52C742.108 166.311 748.348 143.052 764.655 127.608C773.274 119.632 783.808 113.284 796.155 109.75C817.168 103.682 840.755 105.45 862.298 110.086C889.258 115.807 914.281 129.687 938.795 141.616C967.299 155.468 996.414 170.084 1027.32 177.361C1051.77 182.967 1075.55 177.289 1096.13 164.924" stroke="black" stroke-width="0.5" stroke-miterlimit="10"/>
<path d="M-62.7145 374.482C-32.4656 376.949 -2.02281 381.243 27.8295 384.254C31.1905 384.528 34.4531 384.588 37.656 384.8C78.6651 385.908 106.16 354.577 136.419 334.306C166.46 314.124 197.02 300.97 236.03 311.787C278.539 323.457 309.488 349.642 344.812 373.527C377.332 395.258 398.93 393.269 426.209 369.9C428.983 367.494 431.995 364.482 434.849 361.407C456.215 338.683 478.396 305.084 511.377 296.907C514.839 295.996 518.341 295.451 522.098 295.181C552.219 292.875 581.741 293.482 611.375 287.31C628.706 283.64 646.731 278.669 663.333 273.137C688.286 264.946 719.335 254.259 732.282 229.268C736.69 220.858 739.798 210.186 742.154 199.568C746.867 178.332 751.604 155.181 765.523 137.921C772.74 128.868 782.346 121.631 794.12 117.696C815.453 110.354 838.306 113.057 859.93 117.026C886.812 122.016 913.058 137.427 938.622 148.546C967.543 161.337 997.171 176.506 1028.04 183.417C1052.55 188.872 1075.6 182.731 1096.79 171.131" stroke="black" stroke-width="0.5" stroke-miterlimit="10"/>
<path d="M-60.1739 379.156C-29.6863 381.018 0.816114 385.16 30.8652 388.598C34.1666 389.024 37.5872 389.147 40.7902 389.359C82.1332 391.473 110.17 365.253 140.65 343.495C169.803 322.788 199.417 307.862 238.153 317.521C280.546 328.096 311.572 355.011 346.541 378.407C375.31 397.611 400.689 402.709 426.982 378.601C429.597 376.133 432.806 373.548 435.66 370.474C457.342 347.874 479.839 314.399 512.426 305.367C515.889 304.457 519.45 303.76 523.109 303.277C551.906 300.624 580.5 300.341 608.593 293.912C625.231 290.144 642.564 285.075 658.83 279.935C685.345 271.486 716.629 261.59 733.764 238.949C739.475 231.402 743.313 221.193 746.025 211.064C751.686 190.202 755.453 167.194 767.279 148.76C773.509 138.968 781.696 129.772 792.799 125.223C813.541 116.598 836.65 119.578 857.959 123.422C885.374 128.447 912.214 143.743 938.213 154.683C967.471 167.082 997.219 181.948 1028.05 188.494C1052.52 193.584 1075.16 187.104 1096.67 176.511" stroke="black" stroke-width="0.5" stroke-miterlimit="10"/>
<path d="M-57.4751 383.893C-26.7489 385.149 3.81319 389.139 34.1188 392.854C37.4201 393.28 40.8408 393.402 44.2018 393.676C86.0964 396.707 114.104 375.2 145.061 352.23C173.482 331.061 202.092 314.514 240.494 323.167C282.77 332.646 314.131 360.568 348.962 383.384C376.33 401.511 402.156 410.109 428.347 387.186C431.061 384.932 434.052 382.436 437.005 379.575C459.319 357.225 481.893 324.48 514.344 314.869C517.866 313.807 521.427 313.111 525.244 312.69C553.033 309.815 580.759 308.49 607.588 301.563C623.435 297.484 640.115 292.682 655.945 287.721C683.332 278.915 713.054 269.279 734.255 249.289C742.102 241.883 746.689 233.019 750.131 223.353C757.155 203.202 760.526 180.738 770.869 161.895C776.586 151.551 783.965 141.162 793.845 135.082C812.339 123.822 837.008 127.941 857.744 131.385C885.338 135.956 912.652 151.438 939.146 162.048C968.485 173.779 998.45 188.556 1029.15 194.523C1053.73 199.31 1075.8 192.43 1097.65 182.843" stroke="black" stroke-width="0.5" stroke-miterlimit="10"/>
<path d="M-54.7764 388.63C-23.91 389.066 6.65208 393.057 37.2738 396.896C40.7332 397.384 44.0942 397.658 47.4552 397.932C89.8032 401.666 117.584 384.443 148.919 360.048C176.551 338.567 204.373 320.311 242.54 328.171C284.422 336.795 316.412 366.365 351.187 387.934C377.451 404.227 402.892 417.047 429.635 395.042C432.289 392.938 435.439 390.505 438.332 387.795C462.009 366.157 483.593 334.072 516.103 324.31C519.625 323.248 523.403 322.462 527.063 321.979C554.535 318.979 580.147 316.996 607.018 309.036C622.353 304.405 637.944 300.05 653.082 294.991C680.588 285.882 709.618 276.148 732.752 258.669C741.586 252.002 748.445 243.857 752.498 234.957C761.398 216.07 764.906 194.185 774.28 175.484C779.523 164.954 786.35 153.648 795.798 146.348C813.546 132.345 836.93 136.482 857.845 139.472C885.302 143.464 912.992 158.919 939.665 169.075C968.867 180.227 998.853 194.487 1029.35 200.028C1053.9 204.449 1075.49 197.383 1097.8 188.499" stroke="black" stroke-width="0.5" stroke-miterlimit="10"/>
<path d="M-52.2357 393.304C-21.2887 393.073 9.39263 396.76 40.2708 400.875C43.7302 401.363 47.0912 401.637 50.4522 401.912C93.3131 406.198 120.73 392.68 152.384 367.011C179.443 345.13 206.457 325.68 244.487 332.962C286.173 341.159 319.051 371.253 353.847 392.306C378.868 407.584 405.036 422.265 431.418 402.567C434.013 400.614 437.201 398.546 440.192 396.051C464.895 375.516 486.181 344.188 518.533 334.364C522.055 333.302 525.834 332.516 529.809 332.157C557.44 329.22 582.953 327.023 608.344 317.256C619.328 313.01 635.671 308.601 651.799 302.883C678.95 293.284 706.912 283.479 731.308 267.897C740.872 261.692 749.569 254.446 754.648 246.65C765.817 229.882 769.996 208.61 778.914 190.605C783.999 180.012 790.79 166.943 799.863 159.67C817.611 145.667 835.111 145.737 859.941 148.52C887.38 151.63 915.231 165.749 941.448 176.6C970.035 188.385 1000.05 200.73 1030.41 205.692C1054.98 209.596 1076.09 202.343 1098.73 194.466" stroke="black" stroke-width="0.5" stroke-miterlimit="10"/>
<path d="M-49.6949 397.979C-18.6078 396.928 12.1332 400.464 43.1098 404.793C46.5692 405.281 50.0882 405.617 53.3896 406.043C96.3876 410.908 123.521 400.427 155.435 373.636C181.802 351.657 208.443 330.836 246.157 337.993C287.428 345.852 321.413 376.382 356.17 397.07C380.421 411.52 406.667 426.931 433.043 410.029C435.736 408.291 438.963 406.588 441.835 404.395C467.603 385.33 488.59 354.759 520.981 345.3C524.661 344.3 528.499 343.363 532.475 343.004C560.362 340.343 586.149 339.304 611.052 327.07C621.484 321.907 635.909 317.267 651.405 311.3C677.885 301.087 704.741 290.847 729.39 276.938C739.309 271.223 748.954 264.351 755.316 257.935C769.208 243.988 774.63 223.731 783.506 206.759C788.848 196.442 795.442 182.945 804.496 174.79C821.159 159.836 838.426 157.715 862.627 158.85C889.023 159.975 917.387 174.646 942.992 184.731C971.285 195.875 1000.74 207.303 1030.65 211.561C1055.34 215.163 1076.04 207.572 1098.86 200.638" stroke="black" stroke-width="0.5" stroke-miterlimit="10"/>
<path d="M-47.1542 402.653C-15.8673 400.631 14.9334 404.016 46.0084 408.558C49.4678 409.046 52.9868 409.383 56.2882 409.808C99.1669 414.976 126.592 406.535 158.31 379.316C183.985 357.24 210.51 335.324 247.946 342.721C289.157 350.731 323.953 381.056 359.206 401.414C383.102 415.375 408.418 431.294 435.342 416.708C437.916 415.272 441.241 413.783 444.152 411.956C471.023 394.724 491.87 364.973 524.18 356.181C527.86 355.182 532.015 354.369 535.99 354.01C564.45 351.75 590.393 352.171 615.635 338.147C626.088 332.467 638.006 326.315 652.711 320.036C678.204 309.084 703.795 298.346 728.343 285.623C738.459 280.335 747.806 274.22 755.47 268.667C771.354 257.079 779.341 239.582 788.987 223.438C794.841 213.673 801.653 200.086 810.788 191.264C826.562 175.784 843.853 171.748 867.387 170.871C892.581 169.948 921.025 183.951 945.545 193.084C973.068 203.4 1003.22 214.925 1031.43 217.465C1055.81 219.544 1075.7 212.158 1099.52 206.845" stroke="black" stroke-width="0.5" stroke-miterlimit="10"/>
<path d="M-44.6135 407.328C-13.3444 404.424 17.674 407.72 48.8086 412.111C52.268 412.598 55.7871 412.935 59.2465 413.423C101.472 418.858 129.646 411.761 160.889 384.356C186.09 362.093 212.636 339.66 249.795 347.298C290.768 355.914 326.455 385.366 362.143 405.545C386.159 419.203 410.428 434.535 438.038 422.843C440.651 421.773 443.323 420.551 446.332 418.937C474.345 403.905 495.308 375.249 527.538 367.126C531.376 366.188 535.531 365.375 539.762 365.293C568.953 363.495 595.089 365.742 621.086 350.265C631.62 343.918 641.307 336.012 655.064 329.36C679.254 317.545 703.64 306.157 727.573 294.066C737.57 289.082 747.173 283.243 755.172 278.696C771.664 269.272 782.827 255.3 794.092 240.144C800.993 230.966 808.062 217.655 817.593 208.289C833.051 192.685 850.387 186.218 873.351 183.542C897.283 180.722 924.407 192.98 948.375 201.196C975.346 210.595 1003.35 219.699 1032.07 222.791C1057.43 225.609 1076.64 216.727 1100.2 212.536" stroke="black" stroke-width="0.5" stroke-miterlimit="10"/>
<path d="M-42.0132 411.851C-10.7022 407.914 20.3758 411.058 51.5104 415.449C54.9698 415.937 58.4889 416.273 61.9483 416.761C103.798 422.223 132.386 415.465 163.075 388.541C187.879 366.821 216.11 342.428 251.486 351.813C291.465 362.487 328.286 389.061 365.2 409.373C389.177 422.666 413.21 437.205 441.348 428.345C443.841 427.578 446.612 426.57 449.284 425.348C477.67 411.687 499.4 385.258 531.271 378.043C535.268 377.168 539.52 376.569 543.812 376.335C572.644 375.445 602.04 379.151 627.071 362.419C637.25 355.582 648.144 346.928 659.275 339.066C679.713 324.723 704.415 313.46 727.576 301.94C737.355 297.044 746.877 291.873 755.073 287.754C771.959 279.185 785.624 269.522 798.842 256.36C806.769 248.286 814.822 237.112 824.813 225.653C838.788 209.64 859.551 200.499 880.144 196.889C903.486 192.787 928.775 202.748 951.619 209.646C977.901 217.549 1004.82 225.701 1031.96 228.171C1056.97 230.499 1076.55 221.59 1100.12 218.281" stroke="black" stroke-width="0.5" stroke-miterlimit="10"/>
<path d="M-39.3145 416.587C-8.11979 411.555 23.2356 414.459 54.3702 418.85C57.8296 419.337 61.3487 419.674 64.8081 420.162C106.064 425.74 135.109 418.287 165.162 392.512C189.886 371.46 217.703 346.729 253.472 356.969C293.845 368.497 331.045 393.646 368.453 413.629C392.609 426.467 416.684 439.974 444.816 433.91C447.408 433.356 450.217 432.713 452.77 431.794C481.329 420.476 504.123 395.515 535.359 389.45C539.514 388.637 543.925 388.1 548.315 388.08C577.067 387.859 609.287 393.202 633.509 375.277C643.333 367.95 654.287 359.144 665.024 350.427C684.338 334.767 706.374 321.929 729.001 310.373C738.562 305.567 747.906 300.85 756.14 297.096C772.984 289.56 788.996 282.747 803.592 272.576C812.9 266.095 822.118 255.206 832.98 243.39C847.648 227.475 867.722 216.838 888.398 211.161C910.163 205.039 934.507 213.228 956.444 218.719C981.504 225.091 1007.14 231.863 1032.8 233.924C1057.55 235.976 1077.56 226.889 1101 224.399" stroke="black" stroke-width="0.5" stroke-miterlimit="10"/>
<path d="M-36.7738 421.262C-5.69539 415.134 25.7196 417.886 57.1316 422.037C60.591 422.524 64.1101 422.861 67.5695 423.349C107.699 429.008 137.596 420.316 167.113 395.904C192.251 375.191 219.393 351.243 255.932 362.311C296.857 374.757 334.021 398.142 372.044 417.492C396.378 429.876 420.713 442.26 448.958 438.69C451.431 438.44 454.18 437.948 456.832 437.243C485.82 428.542 509.282 405.595 540.16 400.438C544.413 399.839 548.982 399.364 553.53 399.406C582.518 399.977 616.336 406.825 640.344 387.591C649.971 379.837 660.767 370.968 671.209 361.61C689.813 344.971 709.401 330.469 731.673 318.424C740.918 313.493 750.044 308.865 758.099 305.565C774.308 299.179 792.333 294.207 807.555 287.082C818.243 282.196 829.32 271.688 841.407 260.005C857.181 244.525 876.921 232.882 897.365 225.015C916.998 217.353 941.386 223.11 961.704 227.614C985.264 232.695 1009.67 237.936 1033.76 239.374C1057.99 240.874 1078.38 231.76 1101.68 230.09" stroke="black" stroke-width="0.5" stroke-miterlimit="10"/>
<path d="M-34.2331 425.937C-3.27093 418.713 28.3231 421.011 59.577 425.099C63.0364 425.587 66.5555 425.923 70.0149 426.411C109.076 432 139.511 421.945 168.806 399.021C195.111 378.592 221.102 356.64 258.213 368.108C299.394 380.83 336.937 402.79 375.258 421.383C399.772 433.312 424.524 444.636 452.626 443.284C455.197 443.247 457.827 443.058 460.419 442.505C490.093 436.699 513.907 415.639 544.526 411.604C548.937 411.067 553.604 410.806 558.25 411.062C592.12 412.681 619.136 419.649 646.329 399.745C656.371 392.329 666.457 382.481 676.86 372.758C694.989 355.932 713.316 339.534 734.917 326.874C743.748 321.605 752.814 317.129 760.75 314.132C776.661 308.503 794.307 304.957 810.334 300.423C824.956 296.211 838.01 285.783 849.42 276.282C866.596 261.879 886.04 249.594 906.469 239.447C924.602 230.495 947.532 233.928 967.26 237.15C989.379 240.789 1012.41 244.437 1035.01 245.466C1058.52 246.503 1079.12 237.3 1101.74 236.414" stroke="black" stroke-width="0.5" stroke-miterlimit="10"/>
<path d="M-31.5343 430.673C-0.786856 422.141 30.8668 424.287 62.24 428.072C65.6994 428.56 69.2185 428.897 72.6779 429.385C110.791 434.6 141.327 423.36 170.876 402.11C199.158 381.76 223.717 363.443 261.225 374.368C302.171 386.297 340.387 407.473 379.007 425.308C403.759 436.632 428.929 446.896 456.849 447.397C459.36 447.511 462.089 447.536 464.621 447.134C494.348 443.973 519.305 425.112 549.545 422.503C554.054 422.18 558.879 421.981 563.684 422.299C598.797 424.933 624.703 432.863 652.296 411.017C662.141 403.174 672.188 392.961 682.531 383.39C700.443 366.653 718.714 349.007 739.545 335.52C748.119 329.975 756.929 325.223 764.904 322.591C780.418 317.505 797.172 314.832 813.414 311.608C829.497 308.321 844.898 300.742 857.91 291.347C876.547 277.869 896.645 265.317 916.602 253.585C933.274 243.707 954.904 244.879 973.883 246.756C994.78 248.864 1016.11 250.794 1037.33 251.628C1059.99 252.505 1080.45 242.723 1102.4 242.622" stroke="black" stroke-width="0.5" stroke-miterlimit="10"/>
<path d="M-28.9936 435.347C1.73598 425.933 33.0944 427.439 64.745 430.983C68.2641 431.319 71.7234 431.807 75.2425 432.144C113.001 436.869 142.985 424.713 173.065 404.896C202.65 385.409 227.379 370.833 264.553 380.752C305.323 391.737 344.055 412.066 382.717 428.868C407.648 439.738 433.235 448.942 460.935 450.93C463.446 451.044 466.115 451.221 468.686 451.184C498.487 450.151 524.821 434.283 554.486 432.671C559.153 432.41 564.077 432.425 568.98 432.957C605.336 436.606 629.621 444.946 657.613 421.158C667.479 412.798 677.21 402.461 687.455 392.676C705.644 375.699 724.961 358.64 744.826 343.897C753.105 337.712 761.975 332.808 769.95 330.176C785.028 325.269 801.681 323.781 817.645 320.797C835.112 317.705 850.925 311.862 865.535 303.972C885.728 293.032 906.995 279.366 926.739 266.324C943.234 255.502 961.763 255.278 980.706 255.392C1000.03 255.479 1020.31 256.821 1039.85 256.818C1061.52 256.957 1081.39 248.69 1102.73 247.822" stroke="black" stroke-width="0.5" stroke-miterlimit="10"/>
<path d="M-26.2948 440.085C4.51532 430.003 35.3221 430.591 67.4081 433.957C70.9271 434.293 74.3865 434.781 77.9056 435.117C115.33 438.837 145.374 426.529 175.45 408.11C204.597 390.2 233.135 379.398 268.056 388.08C308.651 398.121 347.485 417.266 386.564 433.008C411.793 443.12 437.619 451.718 464.901 454.767C467.51 455.095 470.12 455.423 472.691 455.386C502.468 456.268 529.903 443.632 559.526 443.054C564.291 443.007 569.313 443.235 574.374 443.829C611.915 448.644 634.341 456.602 662.199 430.838C671.71 421.988 681.284 411.588 691.746 401.714C710.174 384.131 731.7 369.343 750.698 353.558C758.84 346.793 767.671 341.525 775.863 338.803C791.159 333.807 808.325 332.871 824.268 330.403C841.023 327.731 857.664 322.564 872.43 316.134C894.221 306.699 916.95 293.958 937.012 279.643C951.569 269.107 970.065 265.721 987.863 265.034C1005.98 264.471 1024.59 263.579 1042.9 263.444C1063.62 263.209 1082.76 254.479 1103.43 254.395" stroke="black" stroke-width="0.5" stroke-miterlimit="10"/>
<path d="M-23.7541 444.759C7.07693 434.16 37.2932 433.466 69.8147 436.654C73.3337 436.99 76.8528 437.327 80.2138 437.601C117.107 439.887 146.972 428.033 177.678 411.262C207.236 395.088 237.861 388.257 271.501 395.559C311.88 404.291 350.875 422.1 389.996 436.809C415.306 446.253 441.273 454.032 468.414 457.9C471.023 458.228 473.633 458.556 476.242 458.884C505.859 461.102 534.65 451.974 564.172 452.581C569.036 452.747 574.216 453.038 579.217 453.784C617.783 459.702 637.997 466.789 665.879 439.11C675.193 429.832 684.51 419.157 694.755 409.372C713.46 391.548 737.098 378.816 756.51 363.37C765.245 356.489 773.802 350.062 782.272 347.1C797.905 341.712 815.485 341.114 831.804 338.62C847.53 336.242 863.616 331.556 878.617 325.919C902.267 316.865 926.334 306.751 946.695 291.679C960.441 281.348 977.833 276.128 995.101 274.007C1011.77 272.003 1029.04 269.882 1046.03 269.4C1065.8 268.792 1084.15 259.75 1103.67 260.265" stroke="black" stroke-width="0.5" stroke-miterlimit="10"/>
<path d="M-21.0554 449.496C9.85622 438.229 39.4612 436.769 72.3196 439.565C75.8387 439.902 79.2593 440.024 82.68 440.147C119.141 441.213 148.985 429.875 180.478 414.814C210.665 400.288 242.567 397.634 275.556 403.805C315.721 411.228 354.839 427.335 393.685 440.886C418.918 449.6 445.122 456.773 471.927 461.033C474.477 461.512 477.244 461.903 479.696 462.168C509.113 465.358 539.615 460.228 568.522 461.467C573.386 461.634 578.605 462.29 583.705 463.249C622.921 470.298 641.438 475.667 668.691 446.34C677.868 436.484 686.711 425.622 696.955 415.837C715.878 397.924 738.902 385.824 761.374 372.808C772.066 366.523 780.407 358.787 789.154 355.585C804.967 349.742 823.2 348.876 840.074 345.901C855.385 343.184 870.857 339.132 885.619 334.1C910.039 325.874 935.525 317.719 956.044 302.709C969.393 292.922 985.781 286.081 1002.3 282.616C1017.63 279.383 1033.5 276.185 1049.54 275.33C1068.2 274.286 1085.71 265.085 1104.29 266.107" stroke="black" stroke-width="0.5" stroke-miterlimit="10"/>
<path d="M-18.5147 454.17C11.7259 442.289 42.5 439.716 74.9439 442.173C78.3049 442.447 81.9432 442.481 85.2655 442.39C121.136 442.173 151.374 431.691 183.753 418.553C214.232 406.066 247.887 406.377 280.304 412.147C320.212 419.294 358.96 432.632 397.434 444.812C422.747 452.858 448.972 459.514 475.243 463.739C477.793 464.218 480.56 464.608 483.012 464.874C512.664 468.856 543.319 466.585 572.599 469.196C577.561 469.576 582.879 470.446 587.978 471.405C627.529 479.461 644.745 482.568 670.972 452.137C679.794 441.792 688.381 430.653 698.625 420.868C717.45 402.741 741.499 391.746 765.173 380.777C776.574 375.471 787.132 367.209 796.097 363.917C812.067 358.137 830.62 355.997 848.009 352.175C859.622 349.577 874.48 346.157 892.249 340.91C917.061 333.539 942.763 326.693 964.465 312.849C978.703 303.587 992.66 295.963 1009.24 290.948C1024.73 286.379 1038.01 282.337 1052.94 281.046C1069.32 279.799 1087.95 269.118 1104.97 271.798" stroke="black" stroke-width="0.5" stroke-miterlimit="10"/>
<path d="M-15.8756 459.058C14.2279 446.599 45.0228 443.508 77.4489 445.084C80.8695 445.207 84.4095 445.027 87.7317 444.936C123.11 443.651 154.058 434.148 186.947 422.96C217.658 412.664 252.891 414.995 284.675 420.517C323.951 427.415 362.744 438.321 400.845 449.13C426.14 456.294 452.11 462.674 478.222 466.836C480.772 467.316 483.54 467.706 486.089 468.186C515.84 472.381 546.391 472.693 575.667 476.702C580.668 477.448 586.144 478.38 591.342 479.552C631.167 488.766 647.42 489.22 672.502 457.988C681.068 447.366 689.397 435.952 699.326 426.042C718.112 407.551 743.029 397.597 767.904 388.676C780.016 384.349 792.923 377.537 802.443 373.764C818.651 367.378 837.801 363.724 855.292 358.718C866.234 355.505 880.716 352.112 898.246 347.471C923.136 340.83 949.941 335.818 971.879 322.766C986.194 314.234 1000.29 305.792 1016.01 299.735C1030.69 293.973 1042.45 289.157 1056.53 287.706C1071.96 286.085 1089.84 275.458 1105.89 278.281" stroke="black" stroke-width="0.5" stroke-miterlimit="10"/>
<path d="M-13.3349 463.733C16.691 450.543 47.3876 447.239 79.8167 447.416C83.2373 447.539 86.6789 447.145 90.0608 446.903C124.947 444.549 157.079 436.212 190.397 427.643C220.906 419.716 257.54 423.124 288.632 428.549C327.276 435.197 366.153 444.037 404.039 453.537C429.158 459.757 455.029 465.923 480.727 469.747C483.337 470.075 486.044 470.617 488.654 470.945C518.405 475.141 548.871 477.519 578.264 482.624C583.364 483.583 588.622 484.604 593.76 485.928C632.911 495.926 649.764 493.467 673.56 462.253C681.87 451.356 689.883 439.817 699.654 429.845C718.302 410.775 743.831 401.586 769.473 394.892C782.353 391.393 795.827 387.778 807.661 383.692C825.531 377.26 843.935 370.864 861.587 364.521C872.016 360.756 885.985 356.812 903.336 352.625C928.364 346.563 956.135 342.806 978.266 331.58C992.698 324.144 1007.57 315.131 1022.79 308.006C1036.86 301.478 1047.32 295.798 1060.51 293.823C1074.83 291.766 1092.12 281.255 1107.45 284.497" stroke="black" stroke-width="0.5" stroke-miterlimit="10"/>
<path d="M-10.6361 468.47C19.3123 454.549 49.5347 451.058 82.5006 449.873C85.8229 449.782 89.4225 449.45 92.706 448.994C127.259 445.634 161.048 438.65 194.42 432.726C225.042 427.293 261.24 430.88 292.769 436.125C330.84 442.374 369.779 449.664 407.292 457.792C432.334 463.282 457.791 469.11 483.193 472.293C485.803 472.621 488.412 472.949 491.022 473.277C520.794 476.956 551.177 481.401 580.37 487.477C585.41 488.587 590.608 489.76 595.686 491.235C633.749 501.679 651.323 494.606 673.948 465.905C682.355 455.221 689.856 443.13 699.31 433.034C717.664 413.322 743.389 404.561 769.818 399.576C783.251 396.994 798.263 395.035 810.214 392.045C829.682 387.117 847.874 378.013 866.361 369.55C876.397 364.931 889.635 360.524 906.709 356.577C931.557 350.97 960.077 348.557 982.244 339.095C997.01 332.665 1012.3 321.193 1028.74 315.599C1039.39 305.271 1051.42 301.612 1064.08 299.601C1083.68 296.65 1101.34 286.113 1108.83 290.286" stroke="black" stroke-width="0.5" stroke-miterlimit="10"/>
<path d="M-8.09548 473.144C21.5577 458.583 52.1171 454.7 84.8684 452.205C88.2503 451.963 91.6919 451.569 94.9754 451.113C129.194 446.747 164.996 441.605 198.144 438.567C229.038 435.69 264.031 438.627 295.995 443.694C333.81 449.667 372.099 455.826 409.932 462.68C434.955 467.289 460.036 473.144 485.045 475.472C487.497 475.738 490.264 476.128 492.933 476.304C522.786 479.316 552.888 485.399 582.001 492.143C587.041 493.253 592.12 494.729 597.04 496.142C633.403 506.266 651.538 495.915 673.802 469.521C682.406 459.265 689.65 446.898 698.63 436.615C716.313 416.289 742.098 407.376 768.84 403.914C782.884 402.098 798.153 400.415 811.087 399.562C833.356 398.186 851.259 385.644 869.672 375.053C879.155 369.516 891.842 364.192 908.638 360.486C933.269 354.968 961.431 353.464 984.544 345.774C1001.09 340.393 1016.81 330.142 1033.73 323.337C1044.55 312.553 1055.59 308.156 1067.46 305.834C1085.64 302.323 1102.59 292.204 1110.02 296.529" stroke="black" stroke-width="0.5" stroke-miterlimit="10"/>
<path d="M-5.39665 477.881C23.9017 462.83 54.819 458.038 87.6121 454.51C91.0536 454.116 94.4952 453.722 97.8383 453.115C131.821 447.956 169.437 445.628 202.817 444.781C233.627 443.97 267.693 446.017 299.618 450.719C337.236 456.265 375.427 462.21 412.848 467.328C437.44 470.716 462.499 477.088 487.234 478.258C489.745 478.372 492.355 478.7 495.024 478.877C524.76 480.793 554.919 488.123 583.635 495.41C588.457 496.61 593.634 498.299 598.397 499.65C630.432 508.245 652.701 497.598 674.151 472.807C682.794 462.916 690.256 450.46 698.604 439.928C715.457 418.926 740.315 409.123 767.489 406.881C781.67 405.644 798.081 406.16 811.114 405.52C835.676 404.348 852.424 395.2 872.033 380.182C880.867 373.514 893.062 367.121 909.324 363.38C933.639 357.737 960.417 356.039 985.462 350.859C1004.73 346.902 1020.1 337.559 1038.05 330.459C1049.52 319.408 1059.64 314.121 1070.71 311.487C1087.63 307.479 1103.87 297.779 1111.45 302.166" stroke="black" stroke-width="0.5" stroke-miterlimit="10"/>
<path d="M-2.85602 482.555C25.8698 467.104 57.7981 461.136 90.0395 456.691C93.4811 456.297 96.8242 455.69 100.167 455.082C134.013 449.345 172.866 450.828 206.876 451.628C237.999 452.34 270.446 453.399 302.016 457.612C339.437 462.729 377.273 468.185 414.774 472.635C439.229 475.444 464.071 481.905 488.373 481.856C490.944 481.819 493.613 481.995 496.124 482.11C525.803 482.778 555.605 491.018 584.142 498.759C588.904 500.11 594.022 501.951 598.686 503.088C628.154 510.321 651.827 499.353 673.766 477.029C682.802 467.993 691.94 457.772 699.164 445.922C712.481 423.701 738.194 411.262 764.912 409.715C779.29 408.905 795.719 410.303 809.166 410.001C833.489 409.435 856.42 403.597 873.068 386.362C880.718 378.529 892.519 371.281 908.763 366.658C933.021 359.768 960.33 359.503 984.898 355.535C1004.62 352.282 1022.75 346.126 1041.27 338.028C1053.77 326.683 1063.22 320.781 1073.88 317.809C1089.85 313.427 1105.37 304.146 1112.96 308.533" stroke="black" stroke-width="0.5" stroke-miterlimit="10"/>
<path d="M-0.157237 487.292C28.0556 471.289 60.7773 464.234 92.7831 458.996C96.1263 458.389 99.6275 457.844 103.03 457.085C136.739 450.768 176.749 456.731 211.191 458.751C242.272 460.496 273.475 460.541 304.473 464.353C341.757 468.892 379.417 473.404 416.662 477.577C440.741 480.414 465.899 486.999 489.828 485.578C492.241 485.479 494.97 485.504 497.54 485.467C527.026 484.31 556.687 493.369 584.789 501.288C589.552 502.639 594.708 504.845 598.957 505.645C628.667 510.873 650.223 500.645 674.052 481.866C683.401 474.352 692.894 464.621 700.216 452.984C714.344 430.558 732.948 413.919 762.237 412.335C776.397 411.614 792.865 413.377 806.291 413.592C830.79 413.97 855.788 412.62 873.27 393.265C881.615 384.131 891.284 375.343 906.858 370.106C930.624 362.148 957.714 361.972 982.497 359.313C1002.71 357.128 1024.96 354.871 1043.02 345.188C1059.37 336.584 1066.29 326.89 1076.54 323.579C1091.62 318.672 1106.59 309.873 1114.27 314.473" stroke="black" stroke-width="0.5" stroke-miterlimit="10"/>
<path d="M2.38343 491.967C30.0833 475.411 63.5983 467.269 95.3686 461.239C98.7117 460.632 102.273 459.935 105.517 459.114C139.247 452.281 180.927 463.274 214.912 465.989C244.845 468.332 275.715 467.371 306.041 470.569C343.188 474.529 380.949 477.856 417.503 481.932C441.107 484.581 467.014 492.511 490.63 489.568C493.103 489.317 495.733 489.128 498.205 488.877C527.339 485.832 556.881 495.194 584.547 503.292C589.152 504.581 594.21 506.573 598.301 507.31C626.767 511.525 649.704 502.89 673.881 487.396C683.604 481.254 692.995 472.707 701.167 461.231C716.56 439.303 728.51 417.769 759.165 415.498C772.851 414.591 788.943 416.381 802.309 416.747C827.322 417.677 852.119 417.298 871.97 400.275C881.835 391.915 889.375 380.189 904.141 373.759C926.961 364.029 953.933 364.156 978.793 362.227C1000.27 360.54 1023.43 359.69 1043.18 351.725C1061.41 344.385 1068.73 332.748 1078.51 329.251C1092.79 324.033 1107.43 315.626 1114.89 320.315" stroke="black" stroke-width="0.5" stroke-miterlimit="10"/>
<path d="M5.02254 496.855C32.3676 479.81 66.3598 470.457 98.0526 463.696C101.455 462.937 104.858 462.178 108.261 461.419C142.011 454.07 184.866 470.424 218.673 473.594C247.577 476.231 277.993 474.566 307.55 476.936C344.461 480.104 382.422 482.46 418.442 486.501C441.355 489.053 468.681 498.941 491.608 494.501C493.982 494.037 496.672 493.697 499.204 493.295C527.948 487.997 557.331 497.296 584.622 505.421C589.226 506.71 593.87 508.364 598.021 508.949C625.282 512.514 649.954 505.963 674.678 494.183C684.773 489.412 694.537 482.237 702.965 471.036C717.561 451.594 729.151 423.095 757.414 420.407C770.152 419.126 785.594 419.785 798.623 420.544C826.126 422.105 847.959 420.907 870.016 407.553C880.827 400.965 888.471 386.656 902.172 378.757C923.535 366.703 950.032 366.644 974.812 365.383C997.396 364.132 1021.05 364.35 1042.46 357.738C1063.15 351.545 1071.46 339.249 1081.04 335.325C1094.92 329.768 1108.99 321.842 1116.46 326.531" stroke="black" stroke-width="0.5" stroke-miterlimit="10"/>
<path d="M7.56322 501.529C34.7711 483.905 69.1809 473.492 100.638 465.939C104.041 465.18 107.503 464.269 110.906 463.51C144.994 455.769 188.212 477.69 221.959 481.011C249.894 483.791 279.66 480.995 308.328 482.841C345.004 485.215 383.224 486.449 418.492 490.544C439.586 493.079 470.92 505.771 492.151 499.613C494.426 498.935 497.176 498.444 499.61 497.828C527.646 490.152 556.556 499.265 583.966 507.087C588.412 508.313 593.017 509.602 597.168 510.188C623.421 513.53 650.124 509.703 675.175 501.726C685.584 498.478 695.938 492.585 704.504 481.964C718.819 464.16 729.804 432.099 755.464 426.286C767.136 423.536 781.532 423.608 794.066 424.697C820.519 427.068 843.894 426.129 866.026 414.903C877.824 409.053 887.564 394.521 899.786 384.815C918.742 370.064 945.32 369.336 968.972 368.156C992.091 366.94 1018.15 368.457 1039.42 362.665C1056.04 358.015 1067.55 348.727 1082.04 341.14C1094.39 334.809 1109.24 327.711 1116.64 332.552" stroke="black" stroke-width="0.5" stroke-miterlimit="10"/>
<path d="M10.262 506.266C37.3327 488.063 72.002 476.527 103.54 468.306C107.002 467.396 110.405 466.637 113.808 465.878C149.795 457.485 188.292 486.294 225.382 489.007C253.239 491.057 281.365 487.79 309.205 488.959C345.546 490.327 383.77 490.163 419.017 494.774C439.833 497.55 472.032 512.682 493.344 505.856C495.679 505.026 498.172 504.259 500.665 503.492C527.956 493.073 556.511 501.696 583.942 509.002C588.388 510.228 592.894 511.303 597.046 511.889C622.863 515.41 651.26 514.699 676.639 510.525C687.36 508.8 698.404 504.403 707.047 494.512C722.648 476.689 732.526 444.193 754.834 433.911C764.434 429.47 778.317 428.99 790.258 430.194C816.176 432.531 839.647 433.203 862.092 423.5C876.144 417.489 889.359 405.725 899.649 393.508C914.874 375.713 941.121 372.58 963.744 371.695C987.871 370.701 1013.67 371.942 1036.28 367.378C1054.52 363.716 1068.38 355.879 1083.77 347.418C1095.86 340.811 1110.53 334.167 1117.87 339.16" stroke="black" stroke-width="0.5" stroke-miterlimit="10"/>
<path d="M12.8027 510.94C39.7362 492.159 74.5666 479.287 106.283 470.611C109.746 469.701 113.208 468.791 116.611 468.032C153.785 459.407 189.935 494.638 228.114 496.905C255.082 498.431 282.28 494.274 309.41 494.463C345.418 494.825 383.862 493.173 418.713 498.328C439.785 501.38 472.357 517.883 494.122 511.761C496.615 510.993 499.049 510.377 501.345 509.183C527.574 495.897 555.697 503.3 583.187 510.454C587.475 511.618 591.982 512.693 596.291 513.341C622.561 517.565 651.683 520.114 677.608 519.654C688.642 519.451 700.157 516.639 709.095 507.389C727.467 488.559 735.126 457.987 754.658 442.238C761.908 436.347 775.081 434.888 786.172 435.932C811.399 438.171 834.49 440.269 857.09 432.026C872.843 426.335 888.431 414.106 898.956 402.682C913.188 386.945 934.765 376.2 958.003 374.681C982.368 373.082 1008.03 373.744 1031.61 370.435C1051.15 367.637 1067.36 361.25 1084.15 352.468C1096.84 345.745 1110.85 339.369 1118.14 344.512" stroke="black" stroke-width="0.5" stroke-miterlimit="10"/>
<path d="M15.5015 515.677C42.3575 496.165 77.2893 482.109 109.125 473.13C112.588 472.22 116.05 471.31 119.453 470.551C158.032 461.604 190.725 504.221 230.923 505.534C257.22 506.445 283.354 500.819 309.496 500.27C345.072 499.412 383.835 496.487 418.289 502.185C439.717 505.726 472.563 523.387 494.939 518.031C497.53 517.477 500.182 516.772 502.418 515.728C527.956 502.345 554.268 505.536 582.886 512.609C587.234 513.622 591.74 514.698 595.99 515.497C623.128 520.763 652.241 527.506 679.287 529.762C690.911 530.842 702.68 529.704 711.952 521.46C732.497 503.136 738.928 473.83 755.663 453.131C762.483 444.621 773.008 442.468 783.091 443.291C807.527 445.219 829.903 449.134 852.402 442.076C869.261 436.82 884.414 424.77 897.787 413.068C914.983 398.148 928.327 381.886 953.703 379.111C978.11 376.478 1003.01 376.312 1026.98 373.858C1046.97 371.763 1067.71 367.333 1084.67 358.096C1097.42 351.222 1111.42 345.362 1118.7 350.506" stroke="black" stroke-width="0.5" stroke-miterlimit="10"/>
<path d="M18.0422 520.352C44.7611 500.261 79.7555 484.655 112.027 475.498C115.489 474.588 119.11 473.739 122.572 472.829C162.714 463.623 191.613 514.018 234.146 514.501C259.773 514.798 284.743 507.49 310.078 505.747C345.122 503.456 384.086 499.559 418.42 505.561C440.262 509.44 473.639 528.535 496.409 524.033C499 523.479 501.75 522.988 504.046 521.793C532.51 508.862 550.508 507.204 583.336 514.711C587.684 515.724 592.032 516.737 596.44 517.598C625.099 523.638 653.57 534.328 681.756 540.181C693.753 542.632 706.052 542.928 715.282 535.718C736.952 518.712 743.168 488.096 757.356 465.519C763.586 455.727 772.119 451.215 781.194 451.816C804.524 453.308 826.026 458.978 848.047 453.131C865.735 448.552 881.819 435.993 896.101 424.3C911.988 411.314 928.785 389.065 950.646 384.554C973.91 379.723 998.195 378.791 1021.99 376.791C1043.31 375.042 1065.46 372.572 1084.62 363.325C1098.81 356.494 1111.68 350.715 1119 356.224" stroke="black" stroke-width="0.5" stroke-miterlimit="10"/>
<path d="M20.7409 525.089C47.6984 504.392 82.1622 487.352 114.809 478.168C118.272 477.258 121.892 476.41 125.355 475.499C167.474 466.373 191.947 524.296 237.071 524.225C261.908 524.211 285.697 514.338 309.946 511.643C344.579 507.616 383.623 503.051 417.779 509.506C440.035 513.724 473.824 534.555 497.264 530.668C500.014 530.176 502.764 529.685 505.158 528.704C534.489 516.814 549.434 509.93 583.249 518.176C587.597 519.189 591.946 520.202 596.294 521.214C626.453 528.545 654.462 542.726 683.431 551.687C695.801 555.51 708.196 557.418 717.9 550.394C740.399 534.064 746.636 502.932 758.611 479.483C764.191 468.561 771.701 461.547 779.392 461.952C801.398 463.098 821.987 470.158 843.373 465.461C861.139 461.612 878.884 449.008 893.503 436.922C910.896 422.43 928.582 400.706 948.277 391.494C967.973 382.282 993.364 381.787 1016.13 380.081C1038.89 378.376 1061.97 376.795 1083.32 368.936C1099.79 362.826 1111.11 356.79 1118.6 362.361" stroke="black" stroke-width="0.5" stroke-miterlimit="10"/>
<path d="M23.2816 529.763C50.26 508.55 84.4106 489.987 117.651 480.688C121.114 479.777 124.734 478.929 128.295 478.232C172.114 469.425 192.596 534.699 240.411 534.288C264.931 534.15 286.729 521.917 310.507 517.637C344.749 511.357 383.695 506.578 417.573 513.274C440.62 517.803 474.444 540.398 498.713 537.187C501.621 536.757 504.371 536.266 506.924 535.347C536.114 524.277 549.979 513.644 584.171 521.863C588.519 522.876 592.867 523.889 597.313 525.115C628.657 533.612 657.33 551.204 686.294 562.962C698.622 567.818 711.529 570.277 721.252 564.135C744.538 549.515 751.172 517.84 761.288 494.009C766.317 482.169 773.415 473.419 779.842 473.326C799.4 472.807 819.786 482.236 840.28 478.413C858.401 475.053 876.739 462.333 891.734 450.221C911.543 434.231 931.439 414.777 948.477 399.795C963.019 386.979 989.856 385.129 1011.39 383.291C1035.13 381.442 1059.63 380.422 1082.48 373.854C1100.51 368.882 1111.42 362.508 1119.06 368.141" stroke="black" stroke-width="0.5" stroke-miterlimit="10"/>
<path d="M25.9207 534.651C52.6636 512.646 86.9156 492.898 120.532 483.571C123.995 482.661 127.615 481.813 131.176 481.116C177.011 472.753 193.127 545.404 243.947 544.778C268.745 544.399 288.175 529.834 311.106 523.996C344.364 515.578 383.707 510.256 416.932 517.22C440.551 522.15 474.786 546.481 499.727 543.883C502.575 543.606 505.483 543.177 508.036 542.258C536.433 532.275 551.452 518.247 584.576 526.396C588.766 527.346 593.43 528.484 597.659 529.8C629.512 540.247 658.481 558.48 687.99 573.951C700.572 580.481 713.342 582.362 723.24 577.164C747.412 564.467 754.481 532.613 763.193 509.104C767.709 496.712 773.88 487.072 779.913 486.124C797.458 483.763 818.097 494.867 836.85 491.756C855.009 488.762 873.723 476.015 888.877 463.965C910.051 447.289 932.55 430.959 949.049 409.467C961.978 392.866 985.32 388.765 1005.53 386.58C1030.32 383.921 1055.49 383.515 1079.94 378.451C1099.43 374.405 1110.18 367.968 1118.08 373.877" stroke="black" stroke-width="0.5" stroke-miterlimit="10"/>
<path d="M28.4614 539.326C54.8106 516.465 89.3819 495.444 123.472 486.304C126.935 485.394 130.713 484.608 134.215 484.063C181.886 476.598 193.935 555.869 247.8 555.393C272.914 555.138 290.549 538.642 312.555 530.515C343.962 518.919 384.312 513.819 416.884 521.05C441.234 526.442 475.881 552.51 501.492 550.527C504.498 550.311 507.406 549.882 509.959 548.963C537.307 539.792 554.032 523.287 586.148 531.214C590.278 532.316 594.784 533.391 599.269 534.983C632.643 546.204 660.181 568.071 690.677 584.282C703.357 591.025 716.008 593.209 726.24 589.017C751.435 578.823 759.136 547.218 766.918 524.217C771.177 511.549 776.757 500.626 782.197 499.795C797.726 496.989 818.762 507.549 836.089 505.277C853.792 502.978 872.685 489.777 887.877 478.092C910.418 460.729 937.488 442.526 951.002 420.733C961.36 404.17 980.9 393.497 1001.47 390.404C1026.89 386.595 1052.95 386.714 1078.53 382.967C1099.26 379.936 1110.27 373.775 1118.54 379.658" stroke="black" stroke-width="0.5" stroke-miterlimit="10"/>
<path d="M31.1602 544.062C57.2141 520.561 91.8481 497.99 126.511 489.25C129.974 488.34 133.693 487.705 137.352 487.222C186.861 480.657 195.058 566.458 251.969 566.131C277.241 565.939 294.503 548.071 314.577 537.434C342.748 522.464 385.332 517.719 416.776 525.031C441.857 530.886 476.915 558.69 503.198 557.322C506.204 557.106 509.21 556.891 511.921 556.034C538.377 547.736 556.945 529.333 587.835 537.126C591.966 538.229 596.63 539.366 600.897 541.047C634.388 553.363 660.869 578.839 692.812 593.694C705.632 599.619 717.746 603.166 728.47 600.042C754.568 592.653 763.513 562.062 770.523 539.632C774.624 526.902 779.631 515.579 784.776 514.106C798.468 510.402 820.93 520.124 835.981 518.53C853.129 516.712 872.022 503.511 886.877 492.218C910.229 474.65 935.126 455.94 951.529 432.836C964.124 415.23 973.531 399.691 997.013 394.77C1022.71 389.323 1049.66 389.966 1075.89 387.351C1097.92 385.183 1109.13 379.449 1117.81 385.67" stroke="black" stroke-width="0.5" stroke-miterlimit="10"/>
<path d="M33.7009 548.737C59.6177 524.656 94.2547 500.687 129.332 492.286C132.953 491.438 136.672 490.803 140.271 490.471C191.656 485.169 196.242 576.895 256.078 577.022C281.982 577.078 298.633 558.445 317.427 545.03C342.837 526.872 386.548 522.047 416.609 529.164C436.116 533.873 452.414 541.167 470.328 550.847C482.06 557.218 490.744 564.837 504.844 564.268C508.008 564.114 511.014 563.899 513.725 563.042C540.536 555.234 557.78 536.484 589.562 543.404C593.752 544.355 598.356 545.644 602.722 547.538C635.855 560.764 662.751 586.577 694.455 602.039C707.215 608.115 719.073 611.385 730.012 609.571C757.171 605.049 767.318 576.506 774.306 554.592C778.348 542.014 782.941 530.353 787.987 528.666C800.79 524.437 822.999 532.485 837.26 530.58C854.369 528.397 871.658 516.488 886.373 506.014C909.901 489.39 934.604 468.855 951.404 445.207C963.265 428.536 971.026 406.052 993.187 399.386C1018.44 391.837 1046.59 393.13 1073.15 391.52C1096.49 390.215 1107.83 385.061 1117.37 391.441" stroke="black" stroke-width="0.5" stroke-miterlimit="10"/>
<path d="M36.34 553.625C61.9616 528.904 96.7596 503.598 132.35 495.749C135.971 494.901 139.63 494.418 143.388 494.148C196.687 490.475 197.643 587.244 260.76 588.313C287.236 588.77 303.711 569.192 321.047 553.453C344.051 532.599 387.547 526.464 416.955 533.849C436.718 538.834 453.985 545.985 471.956 556.912C483.449 563.888 492.864 571.97 507.161 571.828C510.265 571.826 513.489 571.522 516.14 570.817C542.892 563.159 560.866 544.873 592.293 551.303C596.483 552.254 600.93 553.48 605.355 555.224C638.21 568.689 664.927 594.957 696.67 610.784C709.312 617.163 721.425 620.71 732.305 619.047C759.068 615.068 771.358 591.744 779.06 569.41C783.199 557.046 787.635 545.322 792.74 543.484C805.663 538.952 826.61 545.104 841.289 542.138C857.53 538.914 873.706 529.366 887.688 519.828C911.254 503.569 935.188 482.206 951.829 458.496C962.739 442.85 971.583 413.444 990.762 405.079C1014.57 394.689 1045.14 397.281 1071.04 395.939C1085.58 395.192 1103.49 390.523 1117.81 397.738" stroke="black" stroke-width="0.5" stroke-miterlimit="10"/>
<path d="M39.0387 558.362C64.4635 533.213 99.4823 506.42 135.368 499.212C138.929 498.515 142.746 498.094 146.504 497.825C201.598 496.083 199.223 597.139 265.561 599.301C292.61 600.158 308.909 579.637 325.082 562.215C346.35 539.278 387.696 530.721 417.36 538.382C437.756 543.616 455.378 551.257 473.584 562.976C485.274 570.38 494.668 578.978 509.379 579.175C512.642 579.235 515.866 578.931 518.517 578.225C545.149 570.871 563.717 552.469 594.768 558.926C598.958 559.877 603.405 561.103 607.771 562.998C640.506 576.766 667.006 603.123 698.253 619.28C710.835 625.81 723.146 629.784 734.123 628.335C759.699 624.589 775.026 605.609 783.419 583.373C787.854 571.65 792.289 559.926 797.613 557.999C811.09 552.986 831.545 558.069 846.701 553.892C861.421 549.894 876.488 541.308 889.518 532.795C913.004 517.204 935.634 494.978 951.623 471.535C963.01 454.678 971.821 422.11 988.376 411.137C1008.95 397.373 1042.54 400.632 1068.09 400.198C1083.89 399.949 1102.29 396.349 1117.62 403.786" stroke="black" stroke-width="0.5" stroke-miterlimit="10"/>
<path d="M41.5794 563.036C66.8074 537.46 101.671 509.206 138.168 502.764C141.887 502.129 145.705 501.708 149.501 501.804C207.22 502.671 200.547 606.757 270.362 610.288C298.299 611.671 314.264 590.143 329.57 571.68C349.713 547.425 386.935 534.97 417.706 543.066C436.718 548.105 453.985 555.256 471.263 566.086C484.731 574.539 494.93 585.729 511.657 586.37C514.92 586.43 518.084 586.277 520.953 585.483C547.782 578.556 566.252 559.939 597.461 566.459C601.651 567.41 606.097 568.636 610.463 570.531C642.981 584.389 669.105 610.773 700.272 627.597C712.952 634.341 725.242 638.832 736.22 637.383C759.896 634.288 778.798 616.891 788.137 596.427C793.243 585.318 797.776 573.808 803.258 571.944C817.704 566.787 837.885 570.712 854.189 565.938C864.695 562.904 876.514 556.538 892.834 544.772C915.768 528.264 936.576 507.419 951.694 484.334C964.808 464.482 971.698 433.083 987.096 417.63C1004 400.671 1040.38 403.803 1065.47 404.065C1082.38 404.251 1101.48 401.631 1117.54 409.531" stroke="black" stroke-width="0.5" stroke-miterlimit="10"/>
<path d="M44.2781 567.773C69.4077 541.983 104.334 512.18 141.285 506.441C145.004 505.806 148.86 505.75 152.656 505.846C180.436 507.166 190.986 538.788 201.363 558.795C217.254 589.371 236.906 618.279 275.44 621.036C303.733 622.908 320.035 600.988 334.473 581.484C353.551 555.76 386.076 539.005 418.526 547.938C437.854 553.102 455.971 560.413 473.109 572.061C486.496 581.183 497.11 592.711 513.936 593.565C517.198 593.626 520.362 593.473 523.231 592.678C550.158 585.965 568.727 567.562 599.778 574.02C603.968 574.97 608.414 576.197 612.78 578.091C645.081 592.038 670.986 618.512 701.816 635.728C714.535 642.837 726.924 647.542 738 646.306C760.152 643.836 781.822 626.829 792.302 608.565C798.178 598.283 803.066 587.263 809.141 585.282C824.813 580.259 845.668 583.4 862.527 578.144C872.875 575.048 883.847 567.124 897.358 556.001C918.792 538.202 937.381 519.283 951.885 496.83C966.269 474.68 974.638 445.087 986.705 424.649C998.376 404.754 1038.69 407.162 1062.91 407.781C1080.45 408.216 1101.3 406.28 1117.65 414.821" stroke="black" stroke-width="0.5" stroke-miterlimit="10"/>
<path d="M46.8188 572.448C71.6919 546.382 106.839 515.091 144.282 510.42C147.941 509.937 152.015 509.792 155.85 510.253C186.078 513.237 196.18 550.63 207.798 573.05C223.236 602.923 244.418 628.411 280.736 631.694C309.264 634.359 326.377 612.234 339.888 591.839C357.446 565.341 386.046 543.717 419.76 553.148C439.503 558.65 457.936 566.085 475.528 578.437C488.953 587.924 499.704 600.031 516.846 601.01C520.049 601.221 523.273 600.917 526.142 600.122C553.325 593.685 571.834 575.434 602.885 581.891C606.917 582.78 611.522 584.068 615.729 585.901C648.03 599.848 673.658 626.562 703.933 644.26C716.691 651.734 729.02 656.59 740.194 655.568C762.761 653.435 783.462 636.572 796.548 620.034C803.766 610.981 808.732 600.691 815.46 598.443C832.596 592.947 853.427 598.002 871.852 591.089C882.34 587.173 892.403 579.241 903.996 567.887C922.108 550.179 939.847 531.1 952.806 509.788C967.133 486.392 977.912 458.098 987.379 433.137C996.765 408.843 1037.18 411.465 1060.43 412.227C1078.98 412.884 1100.32 412.017 1117.62 420.931" stroke="black" stroke-width="0.5" stroke-miterlimit="10"/>
<path d="M49.5176 577.184C74.2923 550.905 109.601 518.278 147.437 514.462C151.254 514.041 155.05 514.137 159.044 514.66C189.982 518.623 199.762 558.689 211.32 581.26C227.092 612.139 248.808 637.662 286.053 641.835C314.718 645.079 332.207 622.927 345.303 602.194C361.832 575.99 385.384 548.179 421.054 558.206C441.271 563.894 460.059 571.819 477.69 584.537C491.214 594.237 501.884 607.012 519.184 608.053C522.387 608.265 525.67 607.809 528.42 607.317C555.741 601.459 574.249 583.208 605.3 589.665C609.332 590.553 613.779 591.78 618.145 593.675C650.227 607.711 675.856 634.425 705.576 652.604C718.215 660.381 730.8 665.513 741.915 664.643C765.647 662.794 783.7 645.238 799.611 630.337C808.072 622.299 813.867 612.685 821.385 610.748C839.944 605.812 861.744 610.725 880.92 603.758C891.349 599.993 901.135 592.302 911.227 579.657C926.336 560.767 942.432 542.615 953.965 522.141C967.92 497.373 980.676 469.158 988.25 442.051C995.942 414.641 1034.4 415.27 1058.17 416.583C1078.04 417.587 1099.45 417.45 1117.7 426.738" stroke="black" stroke-width="0.5" stroke-miterlimit="10"/>
<path d="M52.0583 581.859C76.5765 555.303 112.362 521.465 150.472 518.806C154.23 518.537 158.343 518.757 162.276 519.432C191.49 524.991 201.318 561.226 212.322 584.279C228.622 617.99 250.805 646.496 291.152 652.066C319.895 656.04 338.371 634.627 350.698 613.066C365.723 586.97 386.341 553.63 422.426 563.994C443.117 569.87 462.063 577.857 479.989 591.215C493.453 601.067 504.043 614.51 521.402 615.4C524.605 615.612 527.829 615.307 530.638 614.664C558.254 609.447 576.763 591.196 607.716 597.439C611.748 598.328 616.194 599.554 620.56 601.449C652.425 615.574 677.836 642.377 707.159 661.1C719.837 669.242 732.52 674.588 743.733 673.931C767.723 672.359 785.361 654.464 802.002 640.026C811.155 632.085 818.805 624.252 826.955 622.564C846.818 618.491 869.843 623.537 889.771 616.516C900.141 612.903 909.985 605.06 918.873 591.766C931.629 572.823 945.453 553.951 955.62 534.164C968.925 508.265 982.179 478.322 988.783 451.358C995.825 422.818 1030.38 419.458 1056.06 421.002C1076.94 422.228 1098.75 422.946 1118.01 432.456" stroke="black" stroke-width="0.5" stroke-miterlimit="10"/>
<path d="M54.599 586.534C80.2267 559.015 123.468 515.518 165.449 524.356C194.958 530.556 204.9 569.285 215.903 592.337C232.537 627.055 255.216 655.231 296.114 661.718C365.419 672.571 358.526 550.546 424.173 569.756C447.551 576.69 467.126 586.324 486.967 601.312C498.752 610.327 508.041 621.509 523.74 622.444C555.039 624.1 576.333 597.849 610.387 605.489C660.095 616.496 694.848 684.941 745.651 683.434C782.037 682.371 800.261 640.74 832.171 633.89C865.268 626.808 905.615 641.65 926.874 604.364C953.075 558.703 974.496 510.809 989.236 461.334C1003.48 413.586 1079.4 419.697 1118.61 438.815" stroke="black" stroke-width="0.5" stroke-miterlimit="10"/>
</g>
<defs>
<clipPath id="clip0_1_3">
<rect width="1148.02" height="800.992" fill="white" transform="translate(0 6.46875) rotate(-0.322857)"/>
</clipPath>
</defs>
</svg>
